<?xml version="1.0" encoding="utf-8"?>
<!-- Generator: Adobe Illustrator 20.1.0, SVG Export Plug-In . SVG Version: 6.00 Build 0)  -->
<svg version="1.1" id="Слой_1" xmlns="http://www.w3.org/2000/svg" xmlns:xlink="http://www.w3.org/1999/xlink" x="0px" y="0px"
	 viewBox="0 0 102.8 127.1" style="enable-background:new 0 0 102.8 127.1;" xml:space="preserve">
<style type="text/css">
	.st0{fill:#F6AC23;}
	.st1{fill:#F9D367;}
	.st2{fill:#848589;}
	.st3{fill:#A0A0A0;}
	.st4{fill:#2B8493;}
	.st5{opacity:0.3;fill:#F5F5F5;}
	.st6{fill:#F3A393;}
	.st7{opacity:0.3;fill:#FCFBEF;}
	.st8{fill:#552312;}
	.st9{fill:#724231;}
	.st10{fill:#FCFBEF;}
	.st11{fill:#511B11;}
	.st12{fill:#F2953D;}
	.st13{fill:#EE7A13;}
	.st14{fill:#951636;}
	.st15{fill:#F39C69;}
	.st16{opacity:0.4;}
	.st17{fill:#F4C393;}
	.st18{opacity:0.2;fill:#FCFBEF;}
</style>
<g>
	<path class="st0" d="M12,97.7c2.7-17.2,28.9-17.1,40.4-17.1c9.7,0,21.3,1.3,28.5,8.8c6.7,7,2.7,16.6-5.4,19.5
		c-12.8,4.9-26.1,4.5-39.8,4.5C29.5,113.4,10,108,12,97.7"/>
	<path class="st0" d="M12.6,97.9c2.4-13,17.3-15.6,28.4-16.4c12.8-0.9,28.4-1.4,38.7,7.4c3.5,3,4.8,7.2,3.6,11.6
		c-1.4,5.1-6.4,7.4-10.9,8.9c-9.1,3-18.9,3.3-28.4,3.4c-6.3,0-12,0-18-2C20.3,109.1,11.6,105.1,12.6,97.9c0.1-0.7-1-1-1.1-0.3
		C9.7,110.3,30,114,39.1,114c11.9,0,23.7-0.1,35.1-4c6-2,12.2-7.6,10.6-14.7C81,79,56.5,79.7,43.7,80.2
		c-12.1,0.5-29.5,2.9-32.2,17.3C11.4,98.3,12.5,98.6,12.6,97.9L12.6,97.9z"/>
</g>
<ellipse transform="matrix(0.9615 -0.2748 0.2748 0.9615 -26.9855 7.4549)" class="st1" cx="13.1" cy="100" rx="0.3" ry="2.5"/>
<ellipse transform="matrix(0.5191 -0.8547 0.8547 0.5191 -73.0102 57.3473)" class="st1" cx="14.5" cy="93.6" rx="2.5" ry="0.3"/>
<ellipse transform="matrix(0.5601 -0.8284 0.8284 0.5601 -80.1917 60.7646)" class="st1" cx="17.1" cy="105.9" rx="0.4" ry="4"/>
<ellipse transform="matrix(0.9577 -0.2877 0.2877 0.9577 -23.3013 10.6299)" class="st1" cx="24.5" cy="84.6" rx="2.5" ry="0.3"/>
<ellipse transform="matrix(0.9156 -0.402 0.402 0.9156 -33.4863 15.1931)" class="st1" cx="19.5" cy="87.4" rx="2.5" ry="0.3"/>
<g>
	<path class="st2" d="M41.1,90.5c-4.7,0-9.5,0-14.3,0c-1.4,0-2.5-0.3-3.4-1.7c-0.4-0.5-0.8-1.2-1.6-1.1c-0.9,0.1-0.2,0.6-0.5,1.1
		c-0.3,0.7-1.4-0.5-2.1-0.5c-1.3,0-0.4,1.2,0.1,1.7c-0.5,0.7-2.9-1-2.3,0.7c0.3,0.8,1.4,1.5,2,1.9c0.7,0.5,1.5,1.1,2.3,1.6
		c1.2,0.8,1.8,1.1,3.2,0.9c2.2-0.5,4.2-1,6.6-1c3.3,0,6.6-0.3,9.9-0.3c1.1,0,2.2,0.1,2-1.4c-0.1-0.9-0.9-1.7-1.8-1.6"/>
</g>
<g>
	<path class="st3" d="M41.1,94.4c-4.7,0-9.5,0-14.3,0c-1.4,0-2.5-0.3-3.4-1.7c-0.4-0.5-0.8-1.2-1.6-1.1c-0.9,0.1-0.2,0.6-0.5,1.1
		c-0.3,0.7-1.4-0.5-2.1-0.5c-1.3,0-0.4,1.2,0.1,1.7c-0.5,0.7-2.9-1-2.3,0.7c0.3,0.8,1.4,1.5,2,1.9c0.7,0.5,1.5,1.1,2.3,1.6
		c1.2,0.8,1.8,1.1,3.2,0.9c2.2-0.5,4.2-1,6.6-1c3.3,0,6.6-0.3,9.9-0.3c1.1,0,2.2,0.1,2-1.4c-0.1-0.9-0.9-1.7-1.8-1.6"/>
</g>
<circle class="st4" cx="27.9" cy="67.5" r="8.8"/>
<path class="st5" d="M23.7,64.2c2.4-3.2,7.1-3.1,10.8-1.9c-1.5-1.6-3.6-2.7-6-2.7c-4.5,0-8.1,3.6-8.1,8.1c0,1.5,0.4,2.9,1.1,4.1
	C21.5,69.1,22.3,66.1,23.7,64.2z"/>
<g>
	<path class="st3" d="M26.5,44.9c-5.8-6.7,5.2-9.9,8.8-13.3c5.4-4.9,8.5-10.8,16.6-9.2c5.6,1.1,7.6,3.8,8.3,9.4
		c0.7,6.5-0.8,8-6.7,10.5C43.9,46.6,36.4,49.8,26.5,44.9"/>
</g>
<g>
	<path class="st2" d="M60.8,31.9c-0.7-5.6-2.7-8.3-8.3-9.4c-0.2,0-0.5-0.1-0.7-0.1c-1.5,1.2-1.2,3.9-1.2,6.1c0,1.1-0.2,2.1-0.6,2.9
		c-0.4,3.9-3.9,6.9-7.5,9c-2.9,1.6-5.8,2.8-9.1,3.2c-1.9,0.2-5.5-0.6-7.2,0.7c-0.2,0.3,0,0.6,0.2,0.9c0.6,0.3,1.2,0.7,1.7,1
		c8.5,2.6,17.6-0.1,26-3.8C60,39.9,61.5,38.4,60.8,31.9z"/>
</g>
<ellipse transform="matrix(0.4522 -0.8919 0.8919 0.4522 -7.7136 63.7014)" class="st6" cx="48" cy="38.1" rx="1.8" ry="2.5"/>
<ellipse transform="matrix(0.4522 -0.8919 0.8919 0.4522 -7.7136 63.7014)" class="st7" cx="48" cy="38.1" rx="1.2" ry="1.7"/>
<ellipse transform="matrix(0.4522 -0.8919 0.8919 0.4522 -7.666 51.2604)" class="st6" cx="37.9" cy="31.9" rx="1.3" ry="1.7"/>
<circle class="st8" cx="27.4" cy="42" r="2.5"/>
<path class="st9" d="M27.9,40.1c0,0,2,0.3,1.5,2.7h-0.7c0,0,0.1-1.2-0.8-2.6"/>
<circle class="st10" cx="41.9" cy="29.5" r="1.8"/>
<circle class="st8" cx="41" cy="29.9" r="1"/>
<circle class="st10" cx="50.2" cy="33.7" r="1.8"/>
<circle class="st8" cx="49.3" cy="34.1" r="1"/>
<path class="st11" d="M34.1,47.2c0,0,5.3,0.6,12.6-4c2.6-1.6-4.5,3.4-6.1,3.9C38.9,47.5,35.7,47.6,34.1,47.2z"/>
<polygon class="st10" points="41.3,45.9 41.9,47 42.1,45.5 "/>
<ellipse transform="matrix(0.4522 -0.8919 0.8919 0.4522 -7.7891 51.0601)" class="st7" cx="37.7" cy="31.9" rx="0.8" ry="1.1"/>
<path class="st2" d="M55.4,28c0,0,4.3-3.5,6-3.6c1.7-0.1-0.7,5.8-1.7,7.6C58.5,33.8,55.1,29.9,55.4,28z"/>
<path class="st6" d="M56.3,28.2c0,0,2.5-2,3.4-2.1c1-0.1-0.4,3.3-1,4.3C58.1,31.5,56.1,29.3,56.3,28.2z"/>
<path class="st7" d="M56.9,28.3c0,0,1.6-1.3,2.2-1.3c0.6,0-0.2,2.1-0.6,2.8C58,30.4,56.8,29,56.9,28.3z"/>
<path class="st2" d="M46.2,22.5c0,0,1.6-5.3,3-6.3c1.3-1,2.7,5.2,2.7,7.2S47,24.2,46.2,22.5z"/>
<g>
	<path class="st12" d="M51.5,20.9c-3,0-4-3.1-5.2-5.5c-0.1,2.1,0.1,4.2,0.4,6.2c-0.9,0.2-1.8,0-2.5-0.6c0.2,2.5,2.7,2.9,4.3,4
		c-0.8,0.7-1.9,0.4-2.8,0.7c1.3,1.1,3.1,1.1,4.8,1.2c0.1,0.7-0.1,1.2-0.4,1.8c1.7,1,3-2.2,3.9-3.1c0.8,1.1,0.7,2.5,2.1,1.7
		c0.8-0.3,1.6-2.2,1.5-3c-0.3-2.5-4.4-3.1-6.3-3.7"/>
</g>
<g>
	<path class="st13" d="M52.5,20.6c-2.4,0-3.2-2.5-4.1-4.4c-0.1,1.7,0.1,3.3,0.4,4.9c-0.7,0.2-1.4,0-2-0.4c0.2,2,2.1,2.3,3.4,3.2
		c-0.6,0.5-1.5,0.4-2.2,0.5c1.1,0.9,2.5,0.9,3.8,1c0.1,0.5-0.1,1-0.4,1.4c1.3,0.8,2.4-1.8,3.1-2.5c0.6,0.9,0.5,2,1.7,1.3
		c0.6-0.3,1.2-1.8,1.2-2.4c-0.3-2-3.5-2.5-5-2.9"/>
</g>
<path class="st8" d="M58.9,25.4c-0.1-0.2-0.1-0.4-0.2-0.6l-0.7-1l6.9-7.2c0,0-0.4-3.9-5.1-4.5l-7.5,7.5c0,0-3.9-2.5-2.7,0.9
	c0,0,4.5,5.5,8.8,5.9l0.4-0.3C58.9,25.8,59,25.6,58.9,25.4z"/>
<path class="st7" d="M55.8,33.6v1.3C55.8,34.9,56.3,34.4,55.8,33.6z"/>
<path class="st7" d="M56.6,32.7V34C56.6,34,57.1,33.5,56.6,32.7z"/>
<path class="st7" d="M56.6,34.6V36C56.6,36,57.1,35.4,56.6,34.6z"/>
<path class="st7" d="M57.3,33.6v1.3C57.3,34.9,57.8,34.4,57.3,33.6z"/>
<path class="st7" d="M58.1,32.7V34C58.1,34,58.5,33.5,58.1,32.7z"/>
<path class="st7" d="M58.1,34.6V36C58.1,36,58.6,35.4,58.1,34.6z"/>
<path class="st7" d="M58.8,33.7v1.3C58.8,35.1,59.3,34.5,58.8,33.7z"/>
<path class="st7" d="M59.5,32.8v1.3C59.5,34.2,60,33.6,59.5,32.8z"/>
<path class="st7" d="M59.6,34.8v1.3C59.6,36.1,60,35.6,59.6,34.8z"/>
<path class="st7" d="M55,34v1.3C55,35.4,55.4,34.9,55,34z"/>
<path class="st7" d="M55,36.3v1.3C55,37.6,55.4,37.1,55,36.3z"/>
<path class="st7" d="M55.7,35.4v1.3C55.7,36.8,56.2,36.2,55.7,35.4z"/>
<path class="st7" d="M55.7,37.4v1.3C55.7,38.7,56.2,38.2,55.7,37.4z"/>
<path class="st7" d="M56.6,36.6V38C56.6,38,57,37.4,56.6,36.6z"/>
<path class="st7" d="M57.3,35.7v1.3C57.3,37.1,57.8,36.5,57.3,35.7z"/>
<path class="st7" d="M57.3,37.7V39C57.3,39,57.8,38.5,57.3,37.7z"/>
<path class="st7" d="M58.1,36.5v1.3C58.1,37.9,58.6,37.3,58.1,36.5z"/>
<path class="st7" d="M58.9,35.6V37C58.9,37,59.3,36.4,58.9,35.6z"/>
<path class="st7" d="M58.9,37.6v1.3C58.9,38.9,59.4,38.4,58.9,37.6z"/>
<g>
	<path class="st2" d="M57.4,40.9c-2.7,0-4.3,0.8-6.7,2.4c-2.9,1.9-4,4.4-5.5,7.5c-3.1,7-6,14.5-6.9,22.3c-0.7,5.3-1.3,14.6,2.6,18.5
		c4.4,4.5,11.5,3.9,15.9-0.2c2.4-2.2,4.2-5.4,6.1-8.2c1.6-2.7,3.1-5.1,3.2-8.4c0.1-2.7,0.5-5.4,0.5-8.2c0-3.4-1.3-6.3-1.9-9.5
		c-0.5-3.4-0.6-6.9-1.7-10.1c-0.5-1.7-1.3-3.7-2.4-5.1c-1.1-1.2-2.8-1.5-4.3-1.7"/>
</g>
<g>
	<path class="st3" d="M51.9,60.4c-1.6,0.8-3.7,1.6-5.3,2.4c-2.5,1.2-4.8,1.8-7.6,2c-2.3,0.2-4.2,0.4-6.3-0.4
		c-1.3-0.6-2.6-0.9-4.1-0.8c-1.9,0.2,0.6,1.4,0.5,2c-0.2,0.8-3.2-0.2-2.7,1.4c0.2,0.6,1.9,0.7,2.2,1c0.7,0.5-0.9,0.5-1.1,1
		c-0.6,1.6,2.2,1.1,3,1c1.9-0.4,3.7-1.1,5.6-1.4c2-0.3,4-0.7,6-1.3c1.9-0.5,3.7-0.7,5.5-1.4c1.6-0.6,3.1-1,4.5-2
		c0.9-0.6,1.4-1.3,1.3-2.5C53.4,60.8,52.6,59.4,51.9,60.4"/>
</g>
<g>
	<path class="st2" d="M65.8,83.6c1.1-0.7,1.6-2,2.8-2.8c1.2-0.7,2.5-1.2,3.8-1.7c1.9-0.8,3.7-1.9,5.5-2.7c2.1-0.9,4.4-1.6,6.4-2.8
		c1.4-0.8,2.7-1.5,4.5-1.3c1.6,0.2,2.5,0.8,1.9,2.5c-2.1,5.3-6.8,8.1-11.8,10.2c-3.6,1.5-7.1,3-11,3.6c-1.7,0.2-5.2,1.3-6.9,0.1
		c1.3-1.8,3-2.8,4.7-4.3"/>
	<path class="st2" d="M66.2,84c4.2-3.7,9.2-6.1,14.5-8.1c1.7-0.7,3.3-1.5,5-2.4c3.8,0.3,4.9,1.4,3.4,3.3c-0.8,1.4-1.9,2.5-3.1,3.5
		c-4,3.6-9.9,5.5-14.9,7c-2.3,0.7-4.8,1.1-7.1,1.3c-3.9,0.4,1.6-3.2,2.3-3.8c0.6-0.5-0.2-1.2-0.8-0.8c-1.7,1.3-3.3,2.6-4.7,4.3
		c-0.2,0.2-0.2,0.7,0.1,0.9c4.8,2.1,12.4-1.3,16.8-3c5.7-2.3,11-5.2,13.6-11.1c1.8-3.9-4.1-3.4-6.1-2.5c-3.4,1.4-6.9,3-10.2,4.7
		c-1.8,0.9-3.6,1.6-5.4,2.4c-1.8,0.8-2.7,2.3-4.1,3.6C64.8,83.7,65.6,84.4,66.2,84L66.2,84z"/>
</g>
<g>
	<path class="st14" d="M37.9,77.5c2.1,0.6,4,0.4,6.2,0.4c2.9,0.1,5.9,0.3,8.8,0.3c2.9,0,5.6-0.6,8.4-1c1.7-0.2,3.6-0.8,5.3-0.6
		c0.6,0.1,0.5-0.2,0.8,0.4c0.2,0.7-0.3,1.8-0.4,2.5c-0.2,1.1-0.4,2.2-0.8,3.4c-0.6,2.1-1.5,4.9-2.9,6.7c-1.3,1.7-2.7,3.4-4.4,4.6
		c-1.7,1.3-3.8,2.9-5.9,3.4c-4.8,1.1-9.9,0.1-14.8,0.7c-0.6,0.1-1.9,0.4-2.4,0.1c-0.6-0.3-0.5-1.1-0.5-1.9c0-1-0.2-2.1-0.1-3.1
		c0.1-0.7,0.2-0.8,1-0.8c-0.3-1.1-0.9-1.6-0.8-2.8c0.5,0,1.2,0.5,1.5,0.1c0.3-0.3,0.1-1.2,0-1.5c-0.4-1.3-0.2-2.9-0.2-3.8
		C37,82.3,36.9,79.5,37.9,77.5"/>
</g>
<g>
	<path class="st15" d="M60.4,76.8c1.2,1.7,0.7,4-1.2,4.6c-1.9,0.5-3.5,0-3.4-2.1c0.1-2.2,2.3-2.9,2.6-4.9c0.2-1.6,0.7-5.3,0.6-6.9
		c-0.2-3.5-0.5-4.8-1.1-8.2c-0.8-4.5-3-8.6-5.9-12.3c-0.7-0.9-1.4-1.7-2.2-2.5c0.5-0.3,2-1.4,2.4-1.3c1.1,0.1,1.3,2,1.7,2.7
		c1.1,1.9,2.4,3.5,3.3,5.5c0.9,2,1.8,4,2.7,6c1.1,2.5,1.4,5,1.7,7.6C62.2,69,61.1,72.9,60.4,76.8"/>
</g>
<g>
	<path class="st4" d="M59.2,77.9c-0.9-0.2-1.5,0.1-1.8,1c-0.3,0.8-0.2,1.8,0.7,2C59.8,81.4,60.3,78.9,59.2,77.9"/>
</g>
<g class="st16">
	<g>
		<path class="st17" d="M54.2,79.8c-0.9-0.2-1.5,0.1-1.8,1c-0.3,0.8-0.2,1.8,0.7,2C54.8,83.3,55.3,80.8,54.2,79.8"/>
	</g>
	<g>
		<path class="st17" d="M61,81.8c-0.9-0.2-1.5,0.1-1.8,1c-0.3,0.8-0.2,1.8,0.7,2C61.6,85.3,62.1,82.8,61,81.8"/>
	</g>
	<g>
		<path class="st17" d="M60,85.8c-1-0.2-1.6,0.1-2,1.1c-0.3,0.9-0.2,1.9,0.8,2.2C60.7,89.6,61.2,86.9,60,85.8"/>
	</g>
	<g>
		<path class="st17" d="M59.9,89.9c-1-0.2-1.6,0.1-2,1.1c-0.3,0.9-0.2,1.9,0.8,2.2C60.5,93.6,61.1,90.9,59.9,89.9"/>
	</g>
	<g>
		<path class="st17" d="M64.4,79.8c-1-0.2-1.6,0.1-2,1.1c-0.3,0.9-0.2,1.9,0.8,2.2C65.1,83.6,65.6,80.9,64.4,79.8"/>
	</g>
	<g>
		<path class="st17" d="M41.7,79.1c-1-0.2-1.6,0.1-2,1.1c-0.3,0.9-0.2,1.9,0.8,2.2C42.4,82.8,42.9,80.1,41.7,79.1"/>
	</g>
	<g>
		<path class="st17" d="M41.7,85.6c-1-0.2-1.6,0.1-2,1.1c-0.3,0.9-0.2,1.9,0.8,2.2C42.4,89.4,42.9,86.7,41.7,85.6"/>
	</g>
	<g>
		<path class="st17" d="M38.7,79.2c-0.7,0-1.1,0.3-1.2,1.1c-0.1,0.7,0.1,1.5,0.9,1.6C39.7,82.1,39.7,79.9,38.7,79.2"/>
	</g>
	<g>
		<path class="st17" d="M38.3,85.5c-0.7,0.1-1,0.5-1,1.2c0,0.6,0.3,1.3,1.1,1.2C39.7,87.7,39.3,85.9,38.3,85.5"/>
	</g>
	<g>
		<path class="st17" d="M39.8,89.3c-1-0.2-1.6,0.1-2,1.1c-0.3,0.9-0.2,1.9,0.8,2.2C40.5,93.1,41,90.4,39.8,89.3"/>
	</g>
	<g>
		<path class="st17" d="M39.6,93.6c-1-0.2-1.6,0.1-2,1.1c-0.3,0.9-0.2,1.9,0.8,2.2C40.3,97.4,40.8,94.7,39.6,93.6"/>
	</g>
	<g>
		<path class="st17" d="M48.2,93.6c-1-0.2-1.6,0.1-2,1.1c-0.3,0.9-0.2,1.9,0.8,2.2C48.9,97.4,49.5,94.7,48.2,93.6"/>
	</g>
	<g>
		<path class="st17" d="M54.3,86.9c-1-0.2-1.6,0.1-2,1.1c-0.3,0.9-0.2,1.9,0.8,2.2C55,90.7,55.5,88,54.3,86.9"/>
	</g>
	<g>
		<path class="st17" d="M43,91.6c-1-0.2-1.6,0.1-2,1.1c-0.3,0.9-0.2,1.9,0.8,2.2C43.7,95.4,44.2,92.7,43,91.6"/>
	</g>
	<g>
		<path class="st17" d="M56.9,87.3c-0.7-0.2-1.1,0.1-1.4,0.8c-0.2,0.7-0.2,1.5,0.5,1.7C57.4,90.3,57.7,88.2,56.9,87.3"/>
	</g>
	<g>
		<path class="st17" d="M45,93.8c-0.7-0.2-1.1,0.1-1.4,0.8c-0.2,0.7-0.2,1.5,0.5,1.7C45.5,96.7,45.8,94.6,45,93.8"/>
	</g>
	<g>
		<path class="st17" d="M48.2,82.2c-0.5,0.4-0.6,0.9-0.2,1.6c0.4,0.6,1.1,1.1,1.7,0.7C50.8,83.7,49.4,82.1,48.2,82.2"/>
	</g>
	<g>
		<path class="st17" d="M63.3,84.5c-1-0.2-1.6,0.1-2,1.1c-0.3,0.9-0.2,1.9,0.8,2.2C64,88.3,64.5,85.6,63.3,84.5"/>
	</g>
	<g>
		<path class="st17" d="M48.4,84.6c-1-0.2-1.6,0.1-2,1.1c-0.3,0.9-0.2,1.9,0.8,2.2C49.1,88.4,49.7,85.7,48.4,84.6"/>
	</g>
	<g>
		<path class="st17" d="M45.1,85.2c-1-0.2-1.6,0.1-2,1.1c-0.3,0.9-0.2,1.9,0.8,2.2C45.8,88.9,46.3,86.2,45.1,85.2"/>
	</g>
	<g>
		<path class="st17" d="M51.4,87.5c-0.7-0.4-1.3-0.4-1.9,0.3c-0.5,0.6-0.7,1.5,0,2C50.9,90.7,52.1,88.7,51.4,87.5"/>
	</g>
	<g>
		<path class="st17" d="M57.3,81.9c-1.5-0.3-2.4,0.1-3,1.6c-0.5,1.3-0.4,2.8,1.2,3.3C58.3,87.5,59.1,83.5,57.3,81.9"/>
	</g>
	<g>
		<path class="st17" d="M56.6,90.7c-1.5-0.3-2.4,0.1-3,1.6c-0.5,1.3-0.4,2.8,1.2,3.3C57.7,96.3,58.5,92.3,56.6,90.7"/>
	</g>
	<g>
		<path class="st17" d="M43.6,79.8c-1.1,1-1.3,2-0.5,3.3c0.7,1.2,2.1,2,3.3,1C48.7,82.4,46,79.3,43.6,79.8"/>
	</g>
	<g>
		<path class="st17" d="M52.4,90.2c-0.7,0.1-1.1,0.4-1.1,1.2c0,0.7,0.3,1.4,1,1.3C53.8,92.7,53.5,90.7,52.4,90.2"/>
	</g>
	<g>
		<path class="st17" d="M47.4,88.5c-1.5-0.3-2.4,0.1-3,1.6c-0.5,1.3-0.4,2.8,1.2,3.3C48.4,94.1,49.2,90.1,47.4,88.5"/>
	</g>
	<g>
		<path class="st17" d="M52.8,84c-0.9-0.4-1.6-0.2-2.1,0.6c-0.5,0.7-0.6,1.7,0.3,2.1C52.7,87.5,53.8,85.2,52.8,84"/>
	</g>
	<g>
		<path class="st17" d="M51.5,81.6c-0.5-0.1-0.8,0-1,0.5c-0.2,0.4-0.1,1,0.4,1.1C51.8,83.6,52.1,82.2,51.5,81.6"/>
	</g>
	<g>
		<path class="st17" d="M42.8,83.4c-0.5-0.1-0.8,0-1,0.5c-0.2,0.4-0.1,1,0.4,1.1C43.1,85.4,43.4,84,42.8,83.4"/>
	</g>
	<g>
		<path class="st17" d="M42.5,95.4c-0.5-0.1-0.8,0-1,0.5c-0.2,0.4-0.1,1,0.4,1.1C42.8,97.3,43.1,96,42.5,95.4"/>
	</g>
	<g>
		<path class="st17" d="M52.5,94c-0.5-0.2-0.8,0.1-1,0.9c-0.2,0.7-0.1,1.5,0.4,1.8C52.9,97,53.1,94.8,52.5,94"/>
	</g>
	<g>
		<path class="st17" d="M43.4,89.1c-0.5-0.1-0.8,0-1,0.5c-0.2,0.4-0.1,1,0.4,1.1C43.7,91,44,89.6,43.4,89.1"/>
	</g>
	<g>
		<path class="st17" d="M37.2,92.5c-0.5-0.1-0.8,0-1,0.5c-0.2,0.4-0.1,1,0.4,1.1C37.5,94.4,37.8,93,37.2,92.5"/>
	</g>
	<g>
		<path class="st17" d="M36.6,96.1c-0.5-0.1-0.8,0-1,0.5c-0.2,0.4-0.1,1,0.4,1.1C36.9,98,37.2,96.6,36.6,96.1"/>
	</g>
	<g>
		<path class="st17" d="M65.4,83.2c-0.5-0.1-0.8,0-1,0.5c-0.2,0.4-0.1,1,0.4,1.1C65.7,85.2,66,83.8,65.4,83.2"/>
	</g>
	<g>
		<path class="st17" d="M66.2,80.2c-0.4-0.1-0.6,0-0.7,0.4c-0.1,0.3-0.1,0.7,0.3,0.8C66.4,81.7,66.6,80.6,66.2,80.2"/>
	</g>
	<g>
		<path class="st17" d="M62.1,88.7c-0.5-0.1-0.8,0-1,0.5c-0.2,0.4-0.1,1,0.4,1.1C62.5,90.6,62.7,89.3,62.1,88.7"/>
	</g>
	<g>
		<path class="st17" d="M66.3,78c-0.8-0.1-1.3,0-1.7,0.5c-0.3,0.4-0.2,1,0.6,1.1C66.8,79.9,67.3,78.5,66.3,78"/>
	</g>
	<g>
		<path class="st17" d="M49.7,79.9c-0.5-0.1-0.8,0-1,0.5c-0.2,0.4-0.1,1,0.4,1.1C50.1,81.8,50.3,80.5,49.7,79.9"/>
	</g>
	<g>
		<path class="st17" d="M40.3,82.8c-1.2-0.1-2,0.1-2.5,0.8c-0.4,0.7-0.3,1.4,1,1.7C41.2,85.7,41.8,83.6,40.3,82.8"/>
	</g>
	<g>
		<path class="st17" d="M63.1,78c-0.5-0.1-0.8,0-1,0.5c-0.2,0.4-0.1,1,0.4,1.1C63.5,79.9,63.7,78.5,63.1,78"/>
	</g>
	<g>
		<path class="st17" d="M50.8,93.6c-0.5-0.1-0.8,0-1,0.5c-0.2,0.4-0.1,1,0.4,1.1C51.2,95.5,51.5,94.1,50.8,93.6"/>
	</g>
	<g>
		<path class="st17" d="M50.4,91c-0.7-0.1-1.1,0.1-1.4,0.7c-0.2,0.6-0.2,1.3,0.5,1.5C50.9,93.5,51.2,91.7,50.4,91"/>
	</g>
</g>
<path class="st7" d="M55.8,44.1l0.5,1.3C56.3,45.4,56.5,44.7,55.8,44.1z"/>
<path class="st7" d="M56.2,43l0.5,1.3C56.7,44.3,56.9,43.6,56.2,43z"/>
<path class="st7" d="M56.9,44.8l0.5,1.3C57.4,46.1,57.6,45.4,56.9,44.8z"/>
<path class="st7" d="M57.2,43.6l0.5,1.3C57.7,44.8,57.9,44.2,57.2,43.6z"/>
<path class="st7" d="M57.6,42.5l0.5,1.3C58,43.7,58.3,43.1,57.6,42.5z"/>
<path class="st7" d="M58.3,44.3l0.5,1.3C58.8,45.6,59,44.9,58.3,44.3z"/>
<path class="st7" d="M58.6,43.2l0.5,1.3C59.1,44.5,59.3,43.8,58.6,43.2z"/>
<path class="st7" d="M59,42.1l0.5,1.3C59.5,43.4,59.7,42.7,59,42.1z"/>
<path class="st7" d="M59.7,43.9l0.5,1.3C60.2,45.2,60.4,44.5,59.7,43.9z"/>
<path class="st7" d="M55.2,44.9l0.5,1.3C55.6,46.1,55.9,45.5,55.2,44.9z"/>
<path class="st7" d="M53.7,44.5l0.5,1.3C54.2,45.8,54.5,45.1,53.7,44.5z"/>
<path class="st7" d="M54.6,43l0.5,1.3C55,44.2,55.3,43.5,54.6,43z"/>
<path class="st7" d="M55.9,47l0.5,1.3C56.4,48.2,56.7,47.5,55.9,47z"/>
<path class="st7" d="M56.3,45.9l0.5,1.3C56.8,47.1,57.1,46.5,56.3,45.9z"/>
<path class="st7" d="M57,47.7l0.5,1.3C57.5,49,57.8,48.3,57,47.7z"/>
<path class="st7" d="M57.5,46.7L58,48C58,48,58.3,47.3,57.5,46.7z"/>
<path class="st7" d="M57.9,45.6l0.5,1.3C58.4,46.9,58.6,46.2,57.9,45.6z"/>
<path class="st7" d="M58.6,47.4l0.5,1.3C59.1,48.7,59.3,48,58.6,47.4z"/>
<path class="st7" d="M58.1,48.5l0.5,1.3C58.5,49.7,58.8,49,58.1,48.5z"/>
<path class="st7" d="M54,52l0.5,1.3C54.4,53.3,54.7,52.6,54,52z"/>
<path class="st7" d="M53.7,53.7l0.5,1.3C54.2,55,54.4,54.3,53.7,53.7z"/>
<path class="st7" d="M54.8,54.2l0.5,1.3C55.2,55.5,55.5,54.8,54.8,54.2z"/>
<path class="st7" d="M52.2,55.5l0.5,1.3C52.7,56.7,52.9,56.1,52.2,55.5z"/>
<path class="st7" d="M52.7,51.8l0.5,1.3C53.1,53,53.4,52.3,52.7,51.8z"/>
<path class="st7" d="M52.4,53.4l0.5,1.3C52.9,54.7,53.1,54,52.4,53.4z"/>
<path class="st7" d="M53.5,55.2l0.5,1.3C54,56.5,54.2,55.8,53.5,55.2z"/>
<path class="st7" d="M51.6,51.7l0.5,1.3C52,52.9,52.3,52.3,51.6,51.7z"/>
<path class="st7" d="M52.8,49.9l0.5,1.3C53.3,51.2,53.6,50.5,52.8,49.9z"/>
<path class="st7" d="M51.5,49.8l0.5,1.3C52,51.1,52.2,50.4,51.5,49.8z"/>
<path class="st7" d="M50.3,49.5l0.5,1.3C50.8,50.8,51,50.1,50.3,49.5z"/>
<path class="st7" d="M51.3,47.8l0.5,1.3C51.8,49,52.1,48.4,51.3,47.8z"/>
<path class="st7" d="M49.7,46.9l0.5,1.3C50.2,48.2,50.4,47.5,49.7,46.9z"/>
<path class="st7" d="M48.6,47.8l0.5,1.3C49.1,49.1,49.3,48.4,48.6,47.8z"/>
<path class="st7" d="M48.4,52l0.5,1.3C48.9,53.3,49.1,52.6,48.4,52z"/>
<path class="st7" d="M47.5,49.1l0.5,1.3C48,50.4,48.3,49.7,47.5,49.1z"/>
<path class="st7" d="M47.9,53.8l0.5,1.3C48.3,55.1,48.6,54.4,47.9,53.8z"/>
<path class="st7" d="M49,50.8l0.5,1.3C49.5,52.1,49.8,51.4,49,50.8z"/>
<path class="st7" d="M48.4,56l0.5,1.3C48.9,57.3,49.1,56.6,48.4,56z"/>
<path class="st7" d="M49.1,58.7l0.5,1.3C49.5,59.9,49.8,59.3,49.1,58.7z"/>
<path class="st7" d="M51.3,53.4l0.5,1.3C51.8,54.6,52.1,54,51.3,53.4z"/>
<path class="st7" d="M50.3,51.4l0.5,1.3C50.7,52.7,51,52,50.3,51.4z"/>
<path class="st7" d="M50,53l0.5,1.3C50.5,54.3,50.7,53.6,50,53z"/>
<path class="st7" d="M50.8,54.8l0.5,1.3C51.3,56.1,51.5,55.4,50.8,54.8z"/>
<path class="st7" d="M55.4,57.8l0.5,1.3C55.9,59,56.2,58.4,55.4,57.8z"/>
<path class="st7" d="M55.2,59.5l0.5,1.3C55.7,60.7,55.9,60.1,55.2,59.5z"/>
<path class="st7" d="M53.7,61.2l0.5,1.3C54.1,62.5,54.4,61.8,53.7,61.2z"/>
<path class="st7" d="M54.1,57.5l0.5,1.3C54.6,58.7,54.9,58.1,54.1,57.5z"/>
<path class="st7" d="M53.9,59.1l0.5,1.3C54.3,60.4,54.6,59.7,53.9,59.1z"/>
<path class="st7" d="M55,61l0.5,1.3C55.5,62.2,55.7,61.5,55,61z"/>
<path class="st7" d="M53.1,57.4l0.5,1.3C53.5,58.7,53.8,58,53.1,57.4z"/>
<path class="st7" d="M52.8,59.1l0.5,1.3C53.3,60.4,53.5,59.7,52.8,59.1z"/>
<path class="st7" d="M51.8,57.1l0.5,1.3C52.2,58.4,52.5,57.7,51.8,57.1z"/>
<path class="st7" d="M50.8,58.8l0.5,1.3C51.3,60.1,51.5,59.4,50.8,58.8z"/>
<path class="st7" d="M50.3,56.7l0.5,1.3C50.7,57.9,51,57.3,50.3,56.7z"/>
<path class="st7" d="M49.3,54.4l0.5,1.3C49.7,55.7,50,55,49.3,54.4z"/>
<path class="st7" d="M54.8,56l0.5,1.3C55.2,57.2,55.5,56.6,54.8,56z"/>
<path class="st7" d="M54.6,63.2l0.5,1.3C55.1,64.5,55.3,63.8,54.6,63.2z"/>
<path class="st7" d="M55.8,63.7l0.5,1.3C56.2,64.9,56.5,64.2,55.8,63.7z"/>
<path class="st7" d="M55.5,65.6l0.5,1.3C55.9,66.8,56.2,66.1,55.5,65.6z"/>
<path class="st7" d="M54.1,64.6l0.5,1.3C54.6,65.9,54.8,65.2,54.1,64.6z"/>
<path class="st7" d="M54,66.5l0.5,1.3C54.4,67.8,54.7,67.1,54,66.5z"/>
<path class="st7" d="M52.6,64.9l0.5,1.3C53.1,66.1,53.3,65.4,52.6,64.9z"/>
<path class="st7" d="M55.7,55.9l0.5,1.3C56.1,57.1,56.4,56.5,55.7,55.9z"/>
<path class="st7" d="M56.4,59.8l0.5,1.3C56.9,61.1,57.2,60.4,56.4,59.8z"/>
<path class="st7" d="M56.3,61.7l0.5,1.3C56.7,62.9,57,62.2,56.3,61.7z"/>
<path class="st7" d="M60.5,45.6l0.5,1.3C61,46.8,61.2,46.2,60.5,45.6z"/>
<path class="st7" d="M60.9,44.6l0.5,1.3C61.4,45.8,61.6,45.2,60.9,44.6z"/>
<path class="st7" d="M61.2,46.9l0.5,1.3C61.7,48.2,62,47.5,61.2,46.9z"/>
<path class="st7" d="M59,46.1l0.5,1.3C59.4,47.3,59.7,46.6,59,46.1z"/>
<path class="st7" d="M59.4,45l0.5,1.3C59.8,46.2,60.1,45.6,59.4,45z"/>
<path class="st7" d="M60.1,46.8l0.5,1.3C60.5,48.1,60.8,47.4,60.1,46.8z"/>
<path class="st7" d="M59.1,49.4l0.5,1.3C59.6,50.7,59.8,50,59.1,49.4z"/>
<path class="st7" d="M59.5,48.3l0.5,1.3C59.9,49.6,60.2,48.9,59.5,48.3z"/>
<path class="st7" d="M60.2,50.2l0.5,1.3C60.7,51.4,60.9,50.8,60.2,50.2z"/>
<path class="st7" d="M60.5,48.9l0.5,1.3C60.9,50.2,61.2,49.5,60.5,48.9z"/>
<path class="st7" d="M60.9,47.8l0.5,1.3C61.3,49.1,61.6,48.4,60.9,47.8z"/>
<path class="st7" d="M61.6,49.6l0.5,1.3C62,50.9,62.3,50.2,61.6,49.6z"/>
<path class="st7" d="M61.9,48.5l0.5,1.3C62.4,49.8,62.6,49.1,61.9,48.5z"/>
<path class="st7" d="M62.2,47.1l0.5,1.3C62.7,48.3,62.9,47.7,62.2,47.1z"/>
<path class="st7" d="M58.4,50.2l0.5,1.3C58.9,51.5,59.2,50.8,58.4,50.2z"/>
<path class="st7" d="M57.2,49.6l0.5,1.3C57.7,50.9,57.9,50.2,57.2,49.6z"/>
<path class="st7" d="M58.1,52l0.5,1.3C58.5,53.2,58.8,52.6,58.1,52z"/>
<path class="st7" d="M59.2,52.3l0.5,1.3C59.7,53.6,60,52.9,59.2,52.3z"/>
<path class="st7" d="M59.6,51.2l0.5,1.3C60.1,52.5,60.3,51.8,59.6,51.2z"/>
<path class="st7" d="M60.3,53l0.5,1.3C60.8,54.3,61.1,53.6,60.3,53z"/>
<path class="st7" d="M60.8,52l0.5,1.3C61.3,53.3,61.6,52.6,60.8,52z"/>
<path class="st7" d="M61.2,50.9l0.5,1.3C61.7,52.2,61.9,51.5,61.2,50.9z"/>
<path class="st7" d="M61.9,52.8l0.5,1.3C62.4,54,62.7,53.4,61.9,52.8z"/>
<path class="st7" d="M62.3,51.4l0.5,1.3C62.7,52.7,63,52,62.3,51.4z"/>
<path class="st7" d="M63.4,52.1l0.5,1.3C63.8,53.4,64.1,52.7,63.4,52.1z"/>
<path class="st7" d="M61.2,55.7l0.5,1.3C61.7,56.9,62,56.2,61.2,55.7z"/>
<path class="st7" d="M63.1,53.8l0.5,1.3C63.6,55.1,63.9,54.4,63.1,53.8z"/>
<path class="st7" d="M63.9,55.1l0.5,1.3C64.4,56.4,64.6,55.7,63.9,55.1z"/>
<path class="st7" d="M61.6,54.3l0.5,1.3C62.1,55.5,62.3,54.9,61.6,54.3z"/>
<path class="st7" d="M62.7,55l0.5,1.3C63.2,56.3,63.4,55.6,62.7,55z"/>
<path class="st7" d="M61.7,57.7l0.5,1.3C62.2,58.9,62.4,58.2,61.7,57.7z"/>
<path class="st7" d="M62.1,56.6l0.5,1.3C62.6,57.8,62.8,57.1,62.1,56.6z"/>
<path class="st7" d="M62.8,58.4l0.5,1.3C63.3,59.7,63.5,59,62.8,58.4z"/>
<path class="st7" d="M63.1,57.1l0.5,1.3C63.6,58.4,63.8,57.7,63.1,57.1z"/>
<path class="st7" d="M63.5,56l0.5,1.3C64,57.3,64.2,56.6,63.5,56z"/>
<path class="st7" d="M64.2,57.9l0.5,1.3C64.7,59.1,64.9,58.5,64.2,57.9z"/>
<path class="st7" d="M64.5,56.8L65,58C65,58,65.3,57.3,64.5,56.8z"/>
<path class="st7" d="M60.4,56.5l0.5,1.3C60.9,57.8,61.2,57.1,60.4,56.5z"/>
<path class="st7" d="M60,54.4l0.5,1.3C60.5,55.7,60.7,55,60,54.4z"/>
<path class="st7" d="M61.1,58.4l0.5,1.3C61.6,59.7,61.8,59,61.1,58.4z"/>
<path class="st7" d="M61.9,60.5l0.5,1.3C62.4,61.8,62.6,61.1,61.9,60.5z"/>
<path class="st7" d="M62.3,59.4l0.5,1.3C62.7,60.7,63,60,62.3,59.4z"/>
<path class="st7" d="M63,61.3l0.5,1.3C63.5,62.5,63.7,61.8,63,61.3z"/>
<path class="st7" d="M62.6,63.3l0.5,1.3C63.1,64.5,63.4,63.8,62.6,63.3z"/>
<path class="st7" d="M64.1,62.4l0.5,1.3C64.6,63.7,64.8,63,64.1,62.4z"/>
<path class="st7" d="M63.9,63.7l0.5,1.3C64.4,64.9,64.6,64.2,63.9,63.7z"/>
<path class="st7" d="M65.1,62.9l0.5,1.3C65.6,64.2,65.9,63.5,65.1,62.9z"/>
<path class="st7" d="M65.8,61.8l0.5,1.3C66.2,63,66.5,62.4,65.8,61.8z"/>
<path class="st7" d="M65.2,64.8l0.5,1.3C65.6,66,65.9,65.3,65.2,64.8z"/>
<path class="st7" d="M63.5,65l0.5,1.3C63.9,66.3,64.2,65.6,63.5,65z"/>
<path class="st7" d="M64.5,65.6l0.5,1.3C65,66.8,65.2,66.1,64.5,65.6z"/>
<path class="st7" d="M66,64.5l0.5,1.3C66.5,65.8,66.8,65.1,66,64.5z"/>
<path class="st7" d="M62.5,65l0.5,1.3C63,66.3,63.2,65.6,62.5,65z"/>
<path class="st7" d="M62.4,67.1l0.5,1.3C62.9,68.3,63.1,67.6,62.4,67.1z"/>
<path class="st7" d="M63.4,66.8l0.5,1.3C63.9,68.1,64.1,67.4,63.4,66.8z"/>
<path class="st7" d="M64.7,67.1l0.5,1.3C65.1,68.3,65.4,67.6,64.7,67.1z"/>
<path class="st7" d="M65.5,66.5l0.5,1.3C66,67.8,66.2,67.1,65.5,66.5z"/>
<path class="st7" d="M66.3,66.3l0.5,1.3C66.8,67.6,67,66.9,66.3,66.3z"/>
<path class="st7" d="M63.4,68.4l0.5,1.3C63.8,69.6,64.1,69,63.4,68.4z"/>
<path class="st7" d="M64.3,68.3l0.5,1.3C64.8,69.6,65,68.9,64.3,68.3z"/>
<path class="st7" d="M65.5,68.2l0.5,1.3C66,69.4,66.2,68.7,65.5,68.2z"/>
<path class="st7" d="M62.2,69.6l0.5,1.3C62.7,70.8,62.9,70.2,62.2,69.6z"/>
<path class="st7" d="M63.5,70.3l0.5,1.3C63.9,71.5,64.2,70.9,63.5,70.3z"/>
<path class="st7" d="M64.3,70l0.5,1.3C64.8,71.3,65,70.6,64.3,70z"/>
<path class="st7" d="M65.5,70l0.5,1.3C66,71.3,66.3,70.6,65.5,70z"/>
<path class="st7" d="M65.4,71.7l0.5,1.3C65.9,72.9,66.1,72.3,65.4,71.7z"/>
<path class="st7" d="M64.2,72l0.5,1.3C64.7,73.2,65,72.6,64.2,72z"/>
<path class="st7" d="M61.8,72.6l0.5,1.3C62.2,73.8,62.5,73.2,61.8,72.6z"/>
<path class="st7" d="M63.5,73.1l0.5,1.3C63.9,74.4,64.2,73.7,63.5,73.1z"/>
<path class="st7" d="M65.4,73.4l0.5,1.3C65.9,74.6,66.1,74,65.4,73.4z"/>
<path class="st7" d="M64.8,74.2l0.5,1.3C65.3,75.5,65.6,74.8,64.8,74.2z"/>
<path class="st7" d="M62.6,74.2l0.5,1.3C63,75.5,63.3,74.8,62.6,74.2z"/>
<path class="st7" d="M61.6,74.9l0.5,1.3C62.1,76.2,62.3,75.5,61.6,74.9z"/>
<path class="st7" d="M63.6,74.9l0.5,1.3C64.1,76.2,64.3,75.5,63.6,74.9z"/>
<path class="st7" d="M69.4,87l1.3-0.5C70.6,86.5,69.9,86.3,69.4,87z"/>
<path class="st7" d="M70.4,87.3l1.3-0.5C71.6,86.8,71,86.6,70.4,87.3z"/>
<path class="st7" d="M70.1,86.1l1.3-0.5C71.3,85.6,70.6,85.4,70.1,86.1z"/>
<path class="st7" d="M71.1,86.2l1.3-0.5C72.4,85.8,71.7,85.5,71.1,86.2z"/>
<path class="st7" d="M72.2,86.5l1.3-0.5C73.4,86.1,72.7,85.8,72.2,86.5z"/>
<path class="st7" d="M71.8,85.3l1.3-0.5C73.1,84.8,72.4,84.6,71.8,85.3z"/>
<path class="st7" d="M73.1,85.4l1.3-0.5C74.4,84.9,73.7,84.7,73.1,85.4z"/>
<path class="st7" d="M74.1,85.7l1.3-0.5C75.4,85.3,74.7,85,74.1,85.7z"/>
<path class="st7" d="M73.8,84.5l1.3-0.5C75.1,84,74.4,83.8,73.8,84.5z"/>
<path class="st7" d="M75.2,84.6l1.3-0.5C76.5,84.1,75.8,83.9,75.2,84.6z"/>
<path class="st7" d="M76.2,84.9l1.3-0.5C77.5,84.5,76.8,84.2,76.2,84.9z"/>
<path class="st7" d="M75.9,83.7l1.3-0.5C77.1,83.2,76.5,83,75.9,83.7z"/>
<path class="st7" d="M77.2,84l1.3-0.5C78.4,83.5,77.8,83.3,77.2,84z"/>
<path class="st7" d="M78.2,84.3l1.3-0.5C79.5,83.8,78.8,83.6,78.2,84.3z"/>
<path class="st7" d="M77.9,83l1.3-0.5C79.1,82.6,78.5,82.3,77.9,83z"/>
<path class="st7" d="M79.1,83.3l1.3-0.5C80.4,82.8,79.7,82.6,79.1,83.3z"/>
<path class="st7" d="M80.2,83.7l1.2-0.7C81.4,83.1,80.7,82.9,80.2,83.7z"/>
<path class="st7" d="M79.9,82.5l1.2-0.7C81,81.8,80.3,81.7,79.9,82.5z"/>
<path class="st7" d="M81.4,82.4l1.1-0.8C82.5,81.6,81.7,81.6,81.4,82.4z"/>
<path class="st7" d="M82.6,82.5l1.1-0.8C83.6,81.7,82.9,81.7,82.6,82.5z"/>
<path class="st7" d="M81.8,81.3l1.1-0.8C82.9,80.5,82.1,80.5,81.8,81.3z"/>
<path class="st7" d="M83.1,81.3l1.1-0.8C84.2,80.5,83.5,80.5,83.1,81.3z"/>
<path class="st7" d="M84.4,81.4l1.1-0.8C85.5,80.6,84.7,80.5,84.4,81.4z"/>
<path class="st7" d="M83.5,80.2l1.1-0.8C84.6,79.3,83.9,79.3,83.5,80.2z"/>
<path class="st7" d="M84.8,80.1l1.1-0.8C85.8,79.3,85.1,79.2,84.8,80.1z"/>
<path class="st7" d="M85.8,80.1l1.1-0.8C86.9,79.3,86.2,79.2,85.8,80.1z"/>
<path class="st7" d="M85.2,79l1.1-0.8C86.2,78.2,85.5,78.1,85.2,79z"/>
<path class="st7" d="M86.5,78.7l1.1-0.8C87.6,77.9,86.9,77.9,86.5,78.7z"/>
<path class="st7" d="M87.6,78.7l1.1-0.8C88.7,77.9,87.9,77.9,87.6,78.7z"/>
<path class="st7" d="M86.9,77.6l1.1-0.8C88,76.8,87.3,76.8,86.9,77.6z"/>
<path class="st7" d="M67.1,87.9l1.2-0.5C68.3,87.4,67.6,87.2,67.1,87.9z"/>
<path class="st7" d="M28,96l1.2-0.5C29.2,95.5,28.6,95.3,28,96z"/>
<path class="st7" d="M28.4,96.6l1.2-0.5C29.6,96.1,29,95.9,28.4,96.6z"/>
<path class="st7" d="M29.4,95.7l1.2-0.5C30.6,95.2,29.9,95,29.4,95.7z"/>
<path class="st7" d="M27,96.9l1.2-0.5C28.2,96.4,27.5,96.2,27,96.9z"/>
<path class="st7" d="M29,92l1.2-0.5C30.2,91.4,29.6,91.2,29,92z"/>
<path class="st7" d="M29.4,92.6l1.2-0.5C30.6,92,30,91.8,29.4,92.6z"/>
<path class="st7" d="M30.4,91.7l1.2-0.5C31.6,91.1,30.9,90.9,30.4,91.7z"/>
<path class="st7" d="M28,92.9l1.2-0.5C29.2,92.3,28.5,92.1,28,92.9z"/>
<path class="st7" d="M30.1,96l1.2-0.5C31.4,95.5,30.7,95.3,30.1,96z"/>
<path class="st7" d="M68.1,88.2l1.2-0.5C69.3,87.7,68.6,87.5,68.1,88.2z"/>
<path class="st7" d="M67.7,87l1.2-0.5C68.9,86.4,68.3,86.2,67.7,87z"/>
<path class="st7" d="M63.5,60.3l0.5,1.3C63.9,61.5,64.2,60.8,63.5,60.3z"/>
<path class="st7" d="M63.9,59.2l0.5,1.3C64.3,60.4,64.6,59.7,63.9,59.2z"/>
<path class="st7" d="M64.6,61l0.5,1.3C65,62.3,65.3,61.6,64.6,61z"/>
<path class="st7" d="M64.9,59.6l0.5,1.3C65.4,60.9,65.6,60.2,64.9,59.6z"/>
<g>
	<g>
		<path class="st15" d="M62.5,45.3C62.5,45.3,62.4,45.3,62.5,45.3c0.1,1.2,0.3,2.3,0.3,3.4c-0.1,4.6-1,9.2-3.2,13.1
			c-1.7,3-2.3,4.3-4.3,7c-0.9,1.3-3.7,3.8-4.8,4.9c-1.5,1.4-3.6,0.5-5.1,2.1c-1.4,1.6-0.5,3,1.3,3.8c1.8,0.7,3.7-0.7,3.8-2.8
			c3-2.6,6.3-4.9,8.5-8.3c1.4-2.3,2.7-4.4,3.5-6.9c0.5-2.1,1.1-4.2,1.7-6.3c0.3-1.1,0.4-2.2,0.6-3.4C64.1,49.7,63.8,47.6,62.5,45.3z
			"/>
	</g>
	<g>
		<path class="st4" d="M49.3,76.3c-0.6-0.7-1.2-0.9-2.1-0.4c-0.8,0.4-1.3,1.2-0.7,2C47.6,79.4,49.5,77.8,49.3,76.3"/>
	</g>
</g>
<ellipse transform="matrix(8.559532e-02 -0.9963 0.9963 8.559532e-02 -20.0227 126.193)" class="st4" cx="58.7" cy="74" rx="0.5" ry="0"/>
<ellipse transform="matrix(0.2915 -0.9566 0.9566 0.2915 -30.6165 109.3733)" class="st4" cx="58.5" cy="75.4" rx="0.5" ry="0"/>
<ellipse transform="matrix(0.2915 -0.9566 0.9566 0.2915 -30.2921 111.6422)" class="st4" cx="60.2" cy="76.3" rx="0.5" ry="0"/>
<ellipse transform="matrix(0.2515 -0.9679 0.9679 0.2515 -27.2493 114.729)" class="st4" cx="60.6" cy="75" rx="0.5" ry="0"/>
<ellipse transform="matrix(0.1984 -0.9801 0.9801 0.1984 -23.2925 118.5669)" class="st4" cx="60.8" cy="73.5" rx="0.5" ry="0"/>
<ellipse transform="matrix(0.1576 -0.9875 0.9875 0.1576 -19.8764 121.121)" class="st4" cx="61.1" cy="72.2" rx="0.5" ry="0"/>
<ellipse transform="matrix(0.1984 -0.9801 0.9801 0.1984 -20.4149 116.8717)" class="st4" cx="61.2" cy="70.9" rx="0.5" ry="0"/>
<ellipse transform="matrix(0.1576 -0.9875 0.9875 0.1576 -16.9631 119.3222)" class="st4" cx="61.5" cy="69.6" rx="0.5" ry="0"/>
<ellipse transform="matrix(7.054069e-02 -0.9975 0.9975 7.054069e-02 -10.646 124.6947)" class="st4" cx="61.6" cy="68.1" rx="0.5" ry="0"/>
<ellipse transform="matrix(2.907532e-02 -0.9996 0.9996 2.907532e-02 -6.8662 126.3921)" class="st4" cx="61.6" cy="66.7" rx="0.5" ry="0"/>
<ellipse transform="matrix(0.9995 -3.255811e-02 3.255811e-02 0.9995 -2.1007 2.0351)" class="st4" cx="61.4" cy="65.5" rx="0" ry="0.5"/>
<ellipse transform="matrix(0.9973 -7.401601e-02 7.401601e-02 0.9973 -4.5833 4.7164)" class="st4" cx="61.3" cy="64.2" rx="0" ry="0.5"/>
<ellipse transform="matrix(0.9928 -0.1196 0.1196 0.9928 -7.0881 7.7483)" class="st4" cx="61" cy="62.9" rx="0" ry="0.5"/>
<ellipse transform="matrix(0.987 -0.1607 0.1607 0.987 -9.1122 10.5717)" class="st4" cx="60.8" cy="61.6" rx="0" ry="0.5"/>
<ellipse transform="matrix(0.9928 -0.1196 0.1196 0.9928 -6.741 7.6496)" class="st4" cx="60.4" cy="60" rx="0" ry="0.5"/>
<ellipse transform="matrix(0.9517 -0.3071 0.3071 0.9517 -15.1146 21.3098)" class="st4" cx="60.2" cy="58.7" rx="0" ry="0.5"/>
<ellipse transform="matrix(0.9517 -0.3071 0.3071 0.9517 -14.7782 21.0739)" class="st4" cx="59.6" cy="57.5" rx="0" ry="0.5"/>
<ellipse transform="matrix(0.9517 -0.3071 0.3071 0.9517 -14.4322 20.8678)" class="st4" cx="59.1" cy="56.3" rx="0" ry="0.5"/>
<ellipse transform="matrix(0.9517 -0.3071 0.3071 0.9517 -14.0716 20.6088)" class="st4" cx="58.5" cy="55" rx="0" ry="0.5"/>
<ellipse transform="matrix(0.9517 -0.3071 0.3071 0.9517 -13.7235 20.3778)" class="st4" cx="57.9" cy="53.8" rx="0" ry="0.5"/>
<ellipse transform="matrix(0.9517 -0.3071 0.3071 0.9517 -13.9321 20.0355)" class="st4" cx="56.7" cy="54.3" rx="0" ry="0.5"/>
<ellipse transform="matrix(0.9517 -0.3071 0.3071 0.9517 -13.5646 19.7821)" class="st4" cx="56.1" cy="53" rx="0" ry="0.5"/>
<ellipse transform="matrix(0.9517 -0.3071 0.3071 0.9517 -13.3605 20.1727)" class="st4" cx="57.4" cy="52.5" rx="0" ry="0.5"/>
<ellipse transform="matrix(0.9055 -0.4244 0.4244 0.9055 -16.3797 28.9932)" class="st4" cx="56.9" cy="51.3" rx="0" ry="0.5"/>
<ellipse transform="matrix(0.9055 -0.4244 0.4244 0.9055 -16.0093 28.6418)" class="st4" cx="56.3" cy="50.3" rx="0" ry="0.5"/>
<ellipse transform="matrix(0.9055 -0.4244 0.4244 0.9055 -15.6013 28.24)" class="st4" cx="55.6" cy="49.1" rx="0" ry="0.5"/>
<ellipse transform="matrix(0.9055 -0.4244 0.4244 0.9055 -15.1134 27.7323)" class="st4" cx="54.7" cy="47.8" rx="0" ry="0.5"/>
<ellipse transform="matrix(0.9055 -0.4244 0.4244 0.9055 -14.7027 27.3486)" class="st4" cx="54" cy="46.7" rx="0" ry="0.5"/>
<ellipse transform="matrix(0.9055 -0.4244 0.4244 0.9055 -14.2824 26.9934)" class="st4" cx="53.5" cy="45.6" rx="0" ry="0.5"/>
<ellipse transform="matrix(0.9055 -0.4244 0.4244 0.9055 -13.778 26.6392)" class="st4" cx="52.9" cy="44.2" rx="0" ry="0.5"/>
<ellipse transform="matrix(0.9055 -0.4244 0.4244 0.9055 -15.9077 27.617)" class="st4" cx="54" cy="49.5" rx="0" ry="0.5"/>
<ellipse transform="matrix(0.7984 -0.6022 0.6022 0.7984 -18.327 41.7829)" class="st4" cx="53.2" cy="48.3" rx="0" ry="0.7"/>
<ellipse transform="matrix(0.7478 -0.664 0.664 0.7478 -18.0616 46.5948)" class="st4" cx="52.3" cy="47.1" rx="0" ry="0.5"/>
<ellipse transform="matrix(0.7478 -0.664 0.664 0.7478 -17.5708 45.7164)" class="st4" cx="51.4" cy="46" rx="0" ry="0.5"/>
<ellipse transform="matrix(0.7478 -0.664 0.664 0.7478 -17.0518 44.9326)" class="st4" cx="50.6" cy="44.9" rx="0" ry="0.5"/>
<ellipse transform="matrix(0.8263 -0.5632 0.5632 0.8263 -19.501 40.2748)" class="st4" cx="55.5" cy="51.8" rx="0" ry="0.5"/>
<ellipse transform="matrix(0.8201 -0.5722 0.5722 0.8201 -19.1438 40.4525)" class="st4" cx="54.8" cy="50.7" rx="0" ry="0.5"/>
<ellipse transform="matrix(0.6275 -0.7787 0.7787 0.6275 -37.965 73.5023)" class="st4" cx="57.8" cy="76.4" rx="0.5" ry="0"/>
<ellipse transform="matrix(0.6275 -0.7787 0.7787 0.6275 -39.0846 73.2105)" class="st4" cx="57" cy="77.5" rx="0.5" ry="0"/>
<ellipse transform="matrix(0.9973 -7.284281e-02 7.284281e-02 0.9973 -5.5809 4.6371)" class="st4" cx="60.8" cy="78.8" rx="0" ry="0.5"/>
<ellipse transform="matrix(0.9578 -0.2874 0.2874 0.9578 -19.7289 20.6667)" class="st4" cx="60.5" cy="77.5" rx="0" ry="0.5"/>
<ellipse transform="matrix(0.2783 -0.9605 0.9605 0.2783 -34.8661 110.8383)" class="st4" cx="56.3" cy="78.6" rx="0.5" ry="0"/>
<ellipse transform="matrix(0.9866 -0.1632 0.1632 0.9866 -12.3124 10.2412)" class="st4" cx="56.2" cy="80.1" rx="0" ry="0.5"/>
<ellipse transform="matrix(0.7456 -0.6664 0.6664 0.7456 -39.5441 58.365)" class="st4" cx="56.7" cy="81" rx="0" ry="0.3"/>
<ellipse transform="matrix(0.1875 -0.9823 0.9823 0.1875 -33.248 122.6184)" class="st4" cx="57.5" cy="81.4" rx="0" ry="0.3"/>
<ellipse transform="matrix(0.9752 -0.2211 0.2211 0.9752 -16.5536 14.9429)" class="st4" cx="58.5" cy="81.4" rx="0.3" ry="0"/>
<ellipse transform="matrix(0.9103 -0.4139 0.4139 0.9103 -28.2764 31.8297)" class="st4" cx="59.3" cy="81.2" rx="0.3" ry="0"/>
<ellipse transform="matrix(0.6685 -0.7437 0.7437 0.6685 -40.137 71.4093)" class="st4" cx="60" cy="80.7" rx="0.3" ry="0"/>
<ellipse transform="matrix(0.4473 -0.8944 0.8944 0.4473 -38.0267 98.37)" class="st4" cx="60.6" cy="80" rx="0.5" ry="0"/>
<ellipse transform="matrix(8.559532e-02 -0.9963 0.9963 8.559532e-02 -17.0662 123.9884)" class="st4" cx="59" cy="71.3" rx="0.5" ry="0"/>
<ellipse transform="matrix(8.559532e-02 -0.9963 0.9963 8.559532e-02 -15.3322 122.7087)" class="st4" cx="59.2" cy="69.7" rx="0.5" ry="0"/>
<ellipse transform="matrix(1 -8.547535e-03 8.547535e-03 1 -0.5802 0.5093)" class="st4" cx="59.3" cy="68.1" rx="0" ry="0.5"/>
<ellipse transform="matrix(0.4759 -0.8795 0.8795 0.4759 -26.4125 85.159)" class="st4" cx="58.2" cy="64.7" rx="0.5" ry="0"/>
<ellipse transform="matrix(0.4759 -0.8795 0.8795 0.4759 -27.7118 85.1939)" class="st4" cx="57.6" cy="65.8" rx="0.5" ry="0"/>
<ellipse transform="matrix(0.4759 -0.8795 0.8795 0.4759 -29.0901 85.1768)" class="st4" cx="56.9" cy="67" rx="0.5" ry="0"/>
<ellipse transform="matrix(0.6215 -0.7834 0.7834 0.6215 -32.1142 69.7948)" class="st4" cx="56.2" cy="68.1" rx="0.5" ry="0"/>
<ellipse transform="matrix(0.6215 -0.7834 0.7834 0.6215 -33.1991 69.503)" class="st4" cx="55.3" cy="69.1" rx="0.5" ry="0"/>
<ellipse transform="matrix(0.6215 -0.7834 0.7834 0.6215 -34.3147 69.1874)" class="st4" cx="54.4" cy="70.1" rx="0.5" ry="0"/>
<ellipse transform="matrix(0.6215 -0.7834 0.7834 0.6215 -31.6475 71.9003)" class="st4" cx="58.6" cy="68.7" rx="0.5" ry="0"/>
<ellipse transform="matrix(0.6215 -0.7834 0.7834 0.6215 -32.6834 71.6653)" class="st4" cx="57.8" cy="69.7" rx="0.5" ry="0"/>
<ellipse transform="matrix(0.6215 -0.7834 0.7834 0.6215 -33.8443 71.3512)" class="st4" cx="56.9" cy="70.7" rx="0.5" ry="0"/>
<ellipse transform="matrix(0.7112 -0.703 0.703 0.7112 -34.1254 60.1332)" class="st4" cx="56.1" cy="71.6" rx="0.5" ry="0"/>
<ellipse transform="matrix(0.7112 -0.703 0.703 0.7112 -34.9467 59.7534)" class="st4" cx="55.3" cy="72.4" rx="0.5" ry="0"/>
<ellipse transform="matrix(0.7112 -0.703 0.703 0.7112 -34.468 58.1612)" class="st4" cx="53.6" cy="71" rx="0.5" ry="0"/>
<ellipse transform="matrix(0.7112 -0.703 0.703 0.7112 -35.304 57.7676)" class="st4" cx="52.7" cy="71.9" rx="0.5" ry="0"/>
<ellipse transform="matrix(0.7112 -0.703 0.703 0.7112 -35.8584 59.2787)" class="st4" cx="54.2" cy="73.3" rx="0.5" ry="0"/>
<ellipse transform="matrix(0.7112 -0.703 0.703 0.7112 -36.6753 58.8798)" class="st4" cx="53.3" cy="74.1" rx="0.5" ry="0"/>
<ellipse transform="matrix(0.7112 -0.703 0.703 0.7112 -36.1662 57.4324)" class="st4" cx="51.8" cy="72.7" rx="0.5" ry="0"/>
<ellipse transform="matrix(0.7112 -0.703 0.703 0.7112 -37.5217 58.4733)" class="st4" cx="52.4" cy="74.9" rx="0.5" ry="0"/>
<ellipse transform="matrix(0.7112 -0.703 0.703 0.7112 -38.3854 57.9714)" class="st4" cx="51.4" cy="75.7" rx="0.5" ry="0"/>
<ellipse transform="matrix(0.7112 -0.703 0.703 0.7112 -37.8222 56.647)" class="st4" cx="50" cy="74.4" rx="0.5" ry="0"/>
<ellipse transform="matrix(0.9988 -4.935710e-02 4.935710e-02 0.9988 -3.631 2.5044)" class="st4" cx="48.9" cy="74.8" rx="0.5" ry="0"/>
<ellipse transform="matrix(1 -6.626794e-03 6.626794e-03 1 -0.4951 0.3184)" class="st4" cx="47.8" cy="74.9" rx="0.4" ry="0"/>
<ellipse transform="matrix(0.9265 -0.3762 0.3762 0.9265 -24.8045 23.1786)" class="st4" cx="46.9" cy="75.1" rx="0.4" ry="0"/>
<ellipse transform="matrix(0.8633 -0.5047 0.5047 0.8633 -31.8129 33.5692)" class="st4" cx="46.1" cy="75.5" rx="0.4" ry="0"/>
<ellipse transform="matrix(0.5846 -0.8113 0.8113 0.5846 -42.9782 68.4012)" class="st4" cx="45.3" cy="76.2" rx="0.4" ry="0"/>
<ellipse transform="matrix(8.644690e-02 -0.9963 0.9963 8.644690e-02 -35.8306 115.3602)" class="st4" cx="45" cy="77.2" rx="0.4" ry="0"/>
<ellipse transform="matrix(0.8268 -0.5625 0.5625 0.8268 -36.1867 39.0488)" class="st4" cx="45.3" cy="78.3" rx="0" ry="0.4"/>
<ellipse transform="matrix(0.5025 -0.8646 0.8646 0.5025 -45.4355 79.0967)" class="st4" cx="46" cy="79" rx="0" ry="0.4"/>
<ellipse transform="matrix(0.1788 -0.9839 0.9839 0.1788 -39.6223 111.4336)" class="st4" cx="46.9" cy="79.5" rx="0" ry="0.3"/>
<ellipse transform="matrix(0.9827 -0.1854 0.1854 0.9827 -13.9113 10.2768)" class="st4" cx="48" cy="79.5" rx="0.3" ry="0"/>
<ellipse transform="matrix(0.9442 -0.3293 0.3293 0.9442 -23.3475 20.5)" class="st4" cx="48.8" cy="79.2" rx="0.3" ry="0"/>
<ellipse transform="matrix(0.6357 -0.7719 0.7719 0.6357 -42.6772 66.8778)" class="st4" cx="49.5" cy="78.7" rx="0.3" ry="0"/>
<ellipse transform="matrix(0.425 -0.9052 0.9052 0.425 -41.7205 90.0048)" class="st4" cx="50" cy="77.8" rx="0.4" ry="0"/>
<ellipse transform="matrix(0.425 -0.9052 0.9052 0.425 -40.4293 89.5958)" class="st4" cx="50.3" cy="76.6" rx="0.4" ry="0"/>
<ellipse transform="matrix(0.7112 -0.703 0.703 0.7112 -36.9934 57.0659)" class="st4" cx="51" cy="73.6" rx="0.5" ry="0"/>
<ellipse transform="matrix(3.664086e-02 -0.9993 0.9993 3.664086e-02 -9.4654 123.6415)" class="st4" cx="59.4" cy="66.7" rx="0.5" ry="0"/>
<ellipse transform="matrix(0.9983 -5.756691e-02 5.756691e-02 0.9983 -3.6521 3.5288)" class="st4" cx="59.4" cy="65.2" rx="0" ry="0.5"/>
<ellipse transform="matrix(0.9908 -0.1351 0.1351 0.9908 -8.0135 8.5611)" class="st4" cx="59.1" cy="63.3" rx="0" ry="0.5"/>
<ellipse transform="matrix(0.9737 -0.2278 0.2278 0.9737 -12.52 15.0195)" class="st4" cx="58.8" cy="61.8" rx="0" ry="0.5"/>
<ellipse transform="matrix(0.9908 -0.1351 0.1351 0.9908 -7.6003 8.4397)" class="st4" cx="58.4" cy="60.2" rx="0" ry="0.5"/>
<ellipse transform="matrix(0.9737 -0.2278 0.2278 0.9737 -11.831 14.7814)" class="st4" cx="58.1" cy="58.7" rx="0" ry="0.5"/>
<ellipse transform="matrix(0.9667 -0.2559 0.2559 0.9667 -12.741 16.6888)" class="st4" cx="57.8" cy="57.3" rx="0" ry="0.5"/>
<ellipse transform="matrix(0.9383 -0.3457 0.3457 0.9383 -15.7528 23.2596)" class="st4" cx="57.3" cy="55.8" rx="0" ry="0.5"/>
<ellipse transform="matrix(8.559532e-02 -0.9963 0.9963 8.559532e-02 -18.6007 125.1192)" class="st4" cx="58.9" cy="72.7" rx="0.5" ry="0"/>
<ellipse class="st5" cx="43.8" cy="66.1" rx="1.2" ry="0.7"/>
<path class="st18" d="M62.9,16c-0.7-0.5-0.8-0.4-1.3-1.1c-2.2,4.8-7.7,6.2-7.7,6.2s1.5,1.8,3.6,2.5l6.6-7.1
	C63.6,16.4,63.3,16.3,62.9,16z"/>
<ellipse class="st1" cx="45.1" cy="112.3" rx="4" ry="0.4"/>
<ellipse class="st1" cx="34.7" cy="111.9" rx="4" ry="0.4"/>
<ellipse transform="matrix(0.2766 -0.961 0.961 0.2766 -87.4819 104.3881)" class="st1" cx="25.6" cy="110.3" rx="0.4" ry="4"/>
<ellipse transform="matrix(0.9745 -0.2242 0.2242 0.9745 -17.7763 9.075)" class="st1" cx="31.1" cy="82.8" rx="2.5" ry="0.3"/>
<ellipse transform="matrix(0.9914 -0.1311 0.1311 0.9914 -14.1956 8.3628)" class="st1" cx="56.4" cy="112" rx="4" ry="0.4"/>
<ellipse transform="matrix(0.9914 -0.1311 0.1311 0.9914 -13.8906 9.6828)" class="st1" cx="66.6" cy="110.3" rx="4" ry="0.4"/>
<ellipse transform="matrix(0.8938 -0.4485 0.4485 0.8938 -40.0041 45.388)" class="st1" cx="75.8" cy="107.2" rx="4" ry="0.4"/>
<ellipse transform="matrix(0.4439 -0.8961 0.8961 0.4439 -45.7657 129.9143)" class="st1" cx="81.8" cy="101.8" rx="2.8" ry="0.4"/>
<ellipse transform="matrix(0.9957 -9.271581e-02 9.271581e-02 0.9957 -8.4887 8.0958)" class="st1" cx="82.9" cy="95.4" rx="0.4" ry="2.8"/>
<ellipse transform="matrix(0.8153 -0.579 0.579 0.8153 -37.1598 62.6687)" class="st1" cx="79.7" cy="89.6" rx="0.4" ry="2.8"/>
<path class="st5" d="M28.8,64.9l-0.4-0.5c0,0,2.1-0.1,2.9,0.4S28.8,64.9,28.8,64.9z"/>
<path class="st5" d="M29.3,67.1c-0.6-0.4-1.9-0.4-2.6-0.4c0,0-0.1,0-0.1,0c0.1,0,0,0,0,0.1c0,0.1,0,0.1,0,0.2c0,0,0,0,0,0l0.1,0.2
	C26.7,67.2,30.1,67.5,29.3,67.1z"/>
<path class="st5" d="M28.3,69.1l-0.4,0.4c0,0,2.1,0.1,2.9-0.3C31.6,68.8,28.3,69.1,28.3,69.1z"/>
<g>
	<text transform="matrix(1 0 0 1 277.3407 -22.5339)" class="st14" style="font-family:'NokiaSansS60'; font-size:9.7622px;">      </text>
</g>
<polygon class="st7" points="21.3,87.6 21.9,87.6 22.3,88.3 "/>
<polygon class="st7" points="18.5,88.5 19.2,88.6 19.5,89.2 "/>
<polygon class="st7" points="16.9,90.3 17.5,90.3 17.9,91 "/>
<polygon class="st7" points="21.6,91.8 22.2,91.9 22.6,92.5 "/>
<polygon class="st7" points="19,92.5 19.7,92.6 20,93.2 "/>
<polygon class="st7" points="16.8,94.3 17.5,94.4 17.8,95 "/>
</svg>
