<?xml version="1.0" encoding="utf-8"?>
<!-- Generator: Adobe Illustrator 20.1.0, SVG Export Plug-In . SVG Version: 6.00 Build 0)  -->
<svg version="1.1" id="Слой_1" xmlns="http://www.w3.org/2000/svg" xmlns:xlink="http://www.w3.org/1999/xlink" x="0px" y="0px"
	 viewBox="0 0 86.7 106.7" style="enable-background:new 0 0 86.7 106.7;" xml:space="preserve">
<style type="text/css">
	.st0{fill:#F6AC23;}
	.st1{fill:#F9D367;}
	.st2{fill:#848589;}
	.st3{fill:#A0A0A0;}
	.st4{fill:#2B8493;}
	.st5{opacity:0.3;fill:#F5F5F5;enable-background:new    ;}
	.st6{fill:#F3A393;}
	.st7{opacity:0.3;fill:#FCFBEF;enable-background:new    ;}
	.st8{fill:#552312;}
	.st9{fill:#724231;}
	.st10{fill:#FCFBEF;}
	.st11{fill:#511B11;}
	.st12{fill:#F2953D;}
	.st13{fill:#EE7A13;}
	.st14{fill:#951636;}
	.st15{fill:#F39C69;}
	.st16{opacity:0.4;}
	.st17{fill:#F4C393;}
	.st18{opacity:0.2;fill:#FCFBEF;enable-background:new    ;}
</style>
<g>
	<path class="st0" d="M4,87.4c2.7-17.2,28.9-17.1,40.4-17.1c9.7,0,21.3,1.3,28.5,8.8c6.7,7,2.7,16.6-5.4,19.5
		c-12.8,4.9-26.1,4.5-39.8,4.5C21.5,103.1,2,97.7,4,87.4"/>
	<path class="st0" d="M4.6,87.6C7,74.6,21.9,72,33,71.2c12.8-0.9,28.4-1.4,38.7,7.4c3.5,3,4.8,7.2,3.6,11.6
		c-1.4,5.1-6.4,7.4-10.9,8.9c-9.1,3-18.9,3.3-28.4,3.4c-6.3,0-12,0-18-2C12.3,98.8,3.6,94.8,4.6,87.6c0.1-0.7-1-1-1.1-0.3
		C1.7,100,22,103.7,31.1,103.7c11.9,0,23.7-0.1,35.1-4c6-2,12.2-7.6,10.6-14.7C73,68.7,48.5,69.4,35.7,69.9
		C23.6,70.4,6.2,72.8,3.5,87.2C3.4,88,4.5,88.3,4.6,87.6L4.6,87.6z"/>
</g>
<ellipse transform="matrix(0.9615 -0.2748 0.2748 0.9615 -24.4458 4.851)" class="st1" cx="5.1" cy="89.7" rx="0.3" ry="2.5"/>
<ellipse transform="matrix(0.5191 -0.8547 0.8547 0.5191 -67.9854 45.5844)" class="st1" cx="6.5" cy="83.2" rx="2.5" ry="0.3"/>
<ellipse transform="matrix(0.5601 -0.8284 0.8284 0.5601 -75.1713 49.5945)" class="st1" cx="9.1" cy="95.6" rx="0.4" ry="4"/>
<ellipse transform="matrix(0.9577 -0.2877 0.2877 0.9577 -20.67 7.8878)" class="st1" cx="16.5" cy="74.3" rx="2.5" ry="0.3"/>
<ellipse transform="matrix(0.9156 -0.402 0.402 0.9156 -30.0025 11.1242)" class="st1" cx="11.5" cy="77" rx="2.5" ry="0.3"/>
<g>
	<path class="st2" d="M33.1,80.2c-4.7,0-9.5,0-14.3,0c-1.4,0-2.5-0.3-3.4-1.7c-0.4-0.5-0.8-1.2-1.6-1.1c-0.9,0.1-0.2,0.6-0.5,1.1
		C13,79.2,11.9,78,11.2,78c-1.3,0-0.4,1.2,0.1,1.7c-0.5,0.7-2.9-1-2.3,0.7c0.3,0.8,1.4,1.5,2,1.9c0.7,0.5,1.5,1.1,2.3,1.6
		c1.2,0.8,1.8,1.1,3.2,0.9c2.2-0.5,4.2-1,6.6-1c3.3,0,6.6-0.3,9.9-0.3c1.1,0,2.2,0.1,2-1.4c-0.1-0.9-0.9-1.7-1.8-1.6"/>
</g>
<g>
	<path class="st3" d="M33.1,84.1c-4.7,0-9.5,0-14.3,0c-1.4,0-2.5-0.3-3.4-1.7c-0.4-0.5-0.8-1.2-1.6-1.1c-0.9,0.1-0.2,0.6-0.5,1.1
		c-0.3,0.7-1.4-0.5-2.1-0.5c-1.3,0-0.4,1.2,0.1,1.7c-0.5,0.7-2.9-1-2.3,0.7c0.3,0.8,1.4,1.5,2,1.9c0.7,0.5,1.5,1.1,2.3,1.6
		c1.2,0.8,1.8,1.1,3.2,0.9c2.2-0.5,4.2-1,6.6-1c3.3,0,6.6-0.3,9.9-0.3c1.1,0,2.2,0.1,2-1.4c-0.1-0.9-0.9-1.7-1.8-1.6"/>
</g>
<circle class="st4" cx="19.9" cy="57.2" r="8.8"/>
<path class="st5" d="M15.7,53.9c2.4-3.2,7.1-3.1,10.8-1.9c-1.5-1.6-3.6-2.7-6-2.7c-4.5,0-8.1,3.6-8.1,8.1c0,1.5,0.4,2.9,1.1,4.1
	C13.5,58.8,14.3,55.8,15.7,53.9z"/>
<g>
	<path class="st3" d="M18.5,34.6c-5.8-6.7,5.2-9.9,8.8-13.3c5.4-4.9,8.5-10.8,16.6-9.2c5.6,1.1,7.6,3.8,8.3,9.4
		c0.7,6.5-0.8,8-6.7,10.5C35.9,36.3,28.4,39.5,18.5,34.6"/>
</g>
<g>
	<path class="st2" d="M52.8,21.6c-0.7-5.6-2.7-8.3-8.3-9.4c-0.2,0-0.5-0.1-0.7-0.1c-1.5,1.2-1.2,3.9-1.2,6.1c0,1.1-0.2,2.1-0.6,2.9
		c-0.4,3.9-3.9,6.9-7.5,9c-2.9,1.6-5.8,2.8-9.1,3.2c-1.9,0.2-5.5-0.6-7.2,0.7c-0.2,0.3,0,0.6,0.2,0.9c0.6,0.3,1.2,0.7,1.7,1
		c8.5,2.6,17.6-0.1,26-3.8C52,29.6,53.5,28.1,52.8,21.6z"/>
</g>
<ellipse transform="matrix(0.4522 -0.8919 0.8919 0.4522 -2.8853 50.8736)" class="st6" cx="40" cy="27.8" rx="1.8" ry="2.5"/>
<ellipse transform="matrix(0.4522 -0.8919 0.8919 0.4522 -2.8853 50.8736)" class="st7" cx="40" cy="27.8" rx="1.2" ry="1.7"/>
<ellipse transform="matrix(0.4522 -0.8919 0.8919 0.4522 -2.8279 38.4941)" class="st6" cx="29.9" cy="21.5" rx="1.3" ry="1.7"/>
<circle class="st8" cx="19.4" cy="31.7" r="2.5"/>
<path class="st9" d="M19.9,29.8c0,0,2,0.3,1.5,2.7h-0.7c0,0,0.1-1.2-0.8-2.6"/>
<circle class="st10" cx="33.9" cy="19.2" r="1.8"/>
<circle class="st8" cx="33" cy="19.6" r="1"/>
<circle class="st10" cx="42.2" cy="23.4" r="1.8"/>
<circle class="st8" cx="41.3" cy="23.8" r="1"/>
<path class="st11" d="M26.1,36.9c0,0,5.3,0.6,12.6-4c2.6-1.6-4.5,3.4-6.1,3.9C30.9,37.2,27.7,37.3,26.1,36.9z"/>
<polygon class="st10" points="33.3,35.6 33.9,36.7 34.1,35.2 "/>
<ellipse transform="matrix(0.4522 -0.8919 0.8919 0.4522 -2.9253 38.2917)" class="st7" cx="29.7" cy="21.5" rx="0.8" ry="1.1"/>
<path class="st2" d="M47.4,17.7c0,0,4.3-3.5,6-3.6s-0.7,5.8-1.7,7.6C50.5,23.5,47.1,19.6,47.4,17.7z"/>
<path class="st6" d="M48.3,17.9c0,0,2.5-2,3.4-2.1c1-0.1-0.4,3.3-1,4.3C50.1,21.2,48.1,19,48.3,17.9z"/>
<path class="st7" d="M48.9,18c0,0,1.6-1.3,2.2-1.3c0.6,0-0.2,2.1-0.6,2.8C50,20.1,48.8,18.7,48.9,18z"/>
<path class="st2" d="M38.2,12.2c0,0,1.6-5.3,3-6.3c1.3-1,2.7,5.2,2.7,7.2S39,13.9,38.2,12.2z"/>
<g>
	<path class="st12" d="M43.5,10.6c-3,0-4-3.1-5.2-5.5c-0.1,2.1,0.1,4.2,0.4,6.2c-0.9,0.2-1.8,0-2.5-0.6c0.2,2.5,2.7,2.9,4.3,4
		c-0.8,0.7-1.9,0.4-2.8,0.7c1.3,1.1,3.1,1.1,4.8,1.2c0.1,0.7-0.1,1.2-0.4,1.8c1.7,1,3-2.2,3.9-3.1c0.8,1.1,0.7,2.5,2.1,1.7
		c0.8-0.3,1.6-2.2,1.5-3c-0.3-2.5-4.4-3.1-6.3-3.7"/>
</g>
<g>
	<path class="st13" d="M44.5,10.3c-2.4,0-3.2-2.5-4.1-4.4c-0.1,1.7,0.1,3.3,0.4,4.9c-0.7,0.2-1.4,0-2-0.4c0.2,2,2.1,2.3,3.4,3.2
		c-0.6,0.5-1.5,0.4-2.2,0.5c1.1,0.9,2.5,0.9,3.8,1c0.1,0.5-0.1,1-0.4,1.4c1.3,0.8,2.4-1.8,3.1-2.5c0.6,0.9,0.5,2,1.7,1.3
		c0.6-0.3,1.2-1.8,1.2-2.4c-0.3-2-3.5-2.5-5-2.9"/>
</g>
<path class="st8" d="M50.9,15.1c-0.1-0.2-0.1-0.4-0.2-0.6l-0.7-1l6.9-7.2c0,0-0.4-3.9-5.1-4.5l-7.5,7.5c0,0-3.9-2.5-2.7,0.9
	c0,0,4.5,5.5,8.8,5.9l0.4-0.3C50.9,15.5,51,15.3,50.9,15.1z"/>
<path class="st7" d="M47.8,23.3v1.3C47.8,24.6,48.3,24.1,47.8,23.3z"/>
<path class="st7" d="M48.6,22.4v1.3C48.6,23.7,49.1,23.2,48.6,22.4z"/>
<path class="st7" d="M48.6,24.3v1.4C48.6,25.7,49.1,25.1,48.6,24.3z"/>
<path class="st7" d="M49.3,23.3v1.3C49.3,24.6,49.8,24.1,49.3,23.3z"/>
<path class="st7" d="M50.1,22.4v1.3C50.1,23.7,50.5,23.2,50.1,22.4z"/>
<path class="st7" d="M50.1,24.3v1.4C50.1,25.7,50.6,25.1,50.1,24.3z"/>
<path class="st7" d="M50.8,23.4v1.3C50.8,24.8,51.3,24.2,50.8,23.4z"/>
<path class="st7" d="M51.5,22.5v1.3C51.5,23.9,52,23.3,51.5,22.5z"/>
<path class="st7" d="M51.6,24.5v1.3C51.6,25.8,52,25.3,51.6,24.5z"/>
<path class="st7" d="M47,23.7V25C47,25.1,47.4,24.6,47,23.7z"/>
<path class="st7" d="M47,26v1.3C47,27.3,47.4,26.8,47,26z"/>
<path class="st7" d="M47.7,25.1v1.3C47.7,26.5,48.2,25.9,47.7,25.1z"/>
<path class="st7" d="M47.7,27.1v1.3C47.7,28.4,48.2,27.9,47.7,27.1z"/>
<path class="st7" d="M48.6,26.3v1.4C48.6,27.7,49,27.1,48.6,26.3z"/>
<path class="st7" d="M49.3,25.4v1.3C49.3,26.8,49.8,26.2,49.3,25.4z"/>
<path class="st7" d="M49.3,27.4v1.3C49.3,28.7,49.8,28.2,49.3,27.4z"/>
<path class="st7" d="M50.1,26.2v1.3C50.1,27.6,50.6,27,50.1,26.2z"/>
<path class="st7" d="M50.9,25.3v1.4C50.9,26.7,51.3,26.1,50.9,25.3z"/>
<path class="st7" d="M50.9,27.3v1.3C50.9,28.6,51.4,28.1,50.9,27.3z"/>
<g>
	<path class="st2" d="M49.4,30.6c-2.7,0-4.3,0.8-6.7,2.4c-2.9,1.9-4,4.4-5.5,7.5c-3.1,7-6,14.5-6.9,22.3c-0.7,5.3-1.3,14.6,2.6,18.5
		c4.4,4.5,11.5,3.9,15.9-0.2c2.4-2.2,4.2-5.4,6.1-8.2c1.6-2.7,3.1-5.1,3.2-8.4c0.1-2.7,0.5-5.4,0.5-8.2c0-3.4-1.3-6.3-1.9-9.5
		c-0.5-3.4-0.6-6.9-1.7-10.1c-0.5-1.7-1.3-3.7-2.4-5.1c-1.1-1.2-2.8-1.5-4.3-1.7"/>
</g>
<g>
	<path class="st3" d="M43.9,50.1c-1.6,0.8-3.7,1.6-5.3,2.4c-2.5,1.2-4.8,1.8-7.6,2c-2.3,0.2-4.2,0.4-6.3-0.4
		c-1.3-0.6-2.6-0.9-4.1-0.8c-1.9,0.2,0.6,1.4,0.5,2c-0.2,0.8-3.2-0.2-2.7,1.4c0.2,0.6,1.9,0.7,2.2,1c0.7,0.5-0.9,0.5-1.1,1
		c-0.6,1.6,2.2,1.1,3,1c1.9-0.4,3.7-1.1,5.6-1.4c2-0.3,4-0.7,6-1.3c1.9-0.5,3.7-0.7,5.5-1.4c1.6-0.6,3.1-1,4.5-2
		c0.9-0.6,1.4-1.3,1.3-2.5C45.4,50.5,44.6,49.1,43.9,50.1"/>
</g>
<g>
	<path class="st2" d="M57.8,73.3c1.1-0.7,1.6-2,2.8-2.8c1.2-0.7,2.5-1.2,3.8-1.7c1.9-0.8,3.7-1.9,5.5-2.7c2.1-0.9,4.4-1.6,6.4-2.8
		c1.4-0.8,2.7-1.5,4.5-1.3c1.6,0.2,2.5,0.8,1.9,2.5c-2.1,5.3-6.8,8.1-11.8,10.2c-3.6,1.5-7.1,3-11,3.6c-1.7,0.2-5.2,1.3-6.9,0.1
		c1.3-1.8,3-2.8,4.7-4.3"/>
	<path class="st2" d="M58.2,73.7c4.2-3.7,9.2-6.1,14.5-8.1c1.7-0.7,3.3-1.5,5-2.4c3.8,0.3,4.9,1.4,3.4,3.3C80.3,67.9,79.2,69,78,70
		c-4,3.6-9.9,5.5-14.9,7c-2.3,0.7-4.8,1.1-7.1,1.3c-3.9,0.4,1.6-3.2,2.3-3.8c0.6-0.5-0.2-1.2-0.8-0.8c-1.7,1.3-3.3,2.6-4.7,4.3
		c-0.2,0.2-0.2,0.7,0.1,0.9c4.8,2.1,12.4-1.3,16.8-3c5.7-2.3,11-5.2,13.6-11.1c1.8-3.9-4.1-3.4-6.1-2.5c-3.4,1.4-6.9,3-10.2,4.7
		c-1.8,0.9-3.6,1.6-5.4,2.4s-2.7,2.3-4.1,3.6C56.8,73.4,57.6,74.1,58.2,73.7L58.2,73.7z"/>
</g>
<g>
	<path class="st14" d="M29.9,67.2c2.1,0.6,4,0.4,6.2,0.4c2.9,0.1,5.9,0.3,8.8,0.3c2.9,0,5.6-0.6,8.4-1c1.7-0.2,3.6-0.8,5.3-0.6
		c0.6,0.1,0.5-0.2,0.8,0.4c0.2,0.7-0.3,1.8-0.4,2.5c-0.2,1.1-0.4,2.2-0.8,3.4c-0.6,2.1-1.5,4.9-2.9,6.7c-1.3,1.7-2.7,3.4-4.4,4.6
		c-1.7,1.3-3.8,2.9-5.9,3.4c-4.8,1.1-9.9,0.1-14.8,0.7c-0.6,0.1-1.9,0.4-2.4,0.1c-0.6-0.3-0.5-1.1-0.5-1.9c0-1-0.2-2.1-0.1-3.1
		c0.1-0.7,0.2-0.8,1-0.8c-0.3-1.1-0.9-1.6-0.8-2.8c0.5,0,1.2,0.5,1.5,0.1c0.3-0.3,0.1-1.2,0-1.5c-0.4-1.3-0.2-2.9-0.2-3.8
		C29,72,28.9,69.2,29.9,67.2"/>
</g>
<g>
	<path class="st15" d="M52.4,66.5c1.2,1.7,0.7,4-1.2,4.6c-1.9,0.5-3.5,0-3.4-2.1c0.1-2.2,2.3-2.9,2.6-4.9c0.2-1.6,0.7-5.3,0.6-6.9
		c-0.2-3.5-0.5-4.8-1.1-8.2c-0.8-4.5-3-8.6-5.9-12.3c-0.7-0.9-1.4-1.7-2.2-2.5c0.5-0.3,2-1.4,2.4-1.3c1.1,0.1,1.3,2,1.7,2.7
		c1.1,1.9,2.4,3.5,3.3,5.5c0.9,2,1.8,4,2.7,6c1.1,2.5,1.4,5,1.7,7.6C54.2,58.7,53.1,62.6,52.4,66.5"/>
</g>
<g>
	<path class="st4" d="M51.2,67.6c-0.9-0.2-1.5,0.1-1.8,1c-0.3,0.8-0.2,1.8,0.7,2C51.8,71.1,52.3,68.6,51.2,67.6"/>
</g>
<g class="st16">
	<g>
		<path class="st17" d="M46.2,69.5c-0.9-0.2-1.5,0.1-1.8,1c-0.3,0.8-0.2,1.8,0.7,2C46.8,73,47.3,70.5,46.2,69.5"/>
	</g>
	<g>
		<path class="st17" d="M53,71.5c-0.9-0.2-1.5,0.1-1.8,1c-0.3,0.8-0.2,1.8,0.7,2C53.6,75,54.1,72.5,53,71.5"/>
	</g>
	<g>
		<path class="st17" d="M52,75.5c-1-0.2-1.6,0.1-2,1.1c-0.3,0.9-0.2,1.9,0.8,2.2C52.7,79.3,53.2,76.6,52,75.5"/>
	</g>
	<g>
		<path class="st17" d="M51.9,79.6c-1-0.2-1.6,0.1-2,1.1c-0.3,0.9-0.2,1.9,0.8,2.2C52.5,83.3,53.1,80.6,51.9,79.6"/>
	</g>
	<g>
		<path class="st17" d="M56.4,69.5c-1-0.2-1.6,0.1-2,1.1c-0.3,0.9-0.2,1.9,0.8,2.2C57.1,73.3,57.6,70.6,56.4,69.5"/>
	</g>
	<g>
		<path class="st17" d="M33.7,68.8c-1-0.2-1.6,0.1-2,1.1c-0.3,0.9-0.2,1.9,0.8,2.2C34.4,72.5,34.9,69.8,33.7,68.8"/>
	</g>
	<g>
		<path class="st17" d="M33.7,75.3c-1-0.2-1.6,0.1-2,1.1c-0.3,0.9-0.2,1.9,0.8,2.2C34.4,79.1,34.9,76.4,33.7,75.3"/>
	</g>
	<g>
		<path class="st17" d="M30.7,68.9c-0.7,0-1.1,0.3-1.2,1.1c-0.1,0.7,0.1,1.5,0.9,1.6C31.7,71.8,31.7,69.6,30.7,68.9"/>
	</g>
	<g>
		<path class="st17" d="M30.3,75.2c-0.7,0.1-1,0.5-1,1.2c0,0.6,0.3,1.3,1.1,1.2C31.7,77.4,31.3,75.6,30.3,75.2"/>
	</g>
	<g>
		<path class="st17" d="M31.8,79c-1-0.2-1.6,0.1-2,1.1c-0.3,0.9-0.2,1.9,0.8,2.2C32.5,82.8,33,80.1,31.8,79"/>
	</g>
	<g>
		<path class="st17" d="M31.6,83.3c-1-0.2-1.6,0.1-2,1.1c-0.3,0.9-0.2,1.9,0.8,2.2C32.3,87.1,32.8,84.4,31.6,83.3"/>
	</g>
	<g>
		<path class="st17" d="M40.2,83.3c-1-0.2-1.6,0.1-2,1.1c-0.3,0.9-0.2,1.9,0.8,2.2C40.9,87.1,41.5,84.4,40.2,83.3"/>
	</g>
	<g>
		<path class="st17" d="M46.3,76.6c-1-0.2-1.6,0.1-2,1.1c-0.3,0.9-0.2,1.9,0.8,2.2C47,80.4,47.5,77.7,46.3,76.6"/>
	</g>
	<g>
		<path class="st17" d="M35,81.3c-1-0.2-1.6,0.1-2,1.1c-0.3,0.9-0.2,1.9,0.8,2.2C35.7,85.1,36.2,82.4,35,81.3"/>
	</g>
	<g>
		<path class="st17" d="M48.9,77c-0.7-0.2-1.1,0.1-1.4,0.8c-0.2,0.7-0.2,1.5,0.5,1.7C49.4,80,49.7,77.9,48.9,77"/>
	</g>
	<g>
		<path class="st17" d="M37,83.5c-0.7-0.2-1.1,0.1-1.4,0.8c-0.2,0.7-0.2,1.5,0.5,1.7C37.5,86.4,37.8,84.3,37,83.5"/>
	</g>
	<g>
		<path class="st17" d="M40.2,71.9c-0.5,0.4-0.6,0.9-0.2,1.6c0.4,0.6,1.1,1.1,1.7,0.7C42.8,73.4,41.4,71.8,40.2,71.9"/>
	</g>
	<g>
		<path class="st17" d="M55.3,74.2c-1-0.2-1.6,0.1-2,1.1c-0.3,0.9-0.2,1.9,0.8,2.2C56,78,56.5,75.3,55.3,74.2"/>
	</g>
	<g>
		<path class="st17" d="M40.4,74.3c-1-0.2-1.6,0.1-2,1.1c-0.3,0.9-0.2,1.9,0.8,2.2C41.1,78.1,41.7,75.4,40.4,74.3"/>
	</g>
	<g>
		<path class="st17" d="M37.1,74.9c-1-0.2-1.6,0.1-2,1.1c-0.3,0.9-0.2,1.9,0.8,2.2C37.8,78.6,38.3,75.9,37.1,74.9"/>
	</g>
	<g>
		<path class="st17" d="M43.4,77.2c-0.7-0.4-1.3-0.4-1.9,0.3c-0.5,0.6-0.7,1.5,0,2C42.9,80.4,44.1,78.4,43.4,77.2"/>
	</g>
	<g>
		<path class="st17" d="M49.3,71.6c-1.5-0.3-2.4,0.1-3,1.6c-0.5,1.3-0.4,2.8,1.2,3.3C50.3,77.2,51.1,73.2,49.3,71.6"/>
	</g>
	<g>
		<path class="st17" d="M48.6,80.4c-1.5-0.3-2.4,0.1-3,1.6c-0.5,1.3-0.4,2.8,1.2,3.3C49.7,86,50.5,82,48.6,80.4"/>
	</g>
	<g>
		<path class="st17" d="M35.6,69.5c-1.1,1-1.3,2-0.5,3.3c0.7,1.2,2.1,2,3.3,1C40.7,72.1,38,69,35.6,69.5"/>
	</g>
	<g>
		<path class="st17" d="M44.4,79.9c-0.7,0.1-1.1,0.4-1.1,1.2c0,0.7,0.3,1.4,1,1.3C45.8,82.4,45.5,80.4,44.4,79.9"/>
	</g>
	<g>
		<path class="st17" d="M39.4,78.2c-1.5-0.3-2.4,0.1-3,1.6c-0.5,1.3-0.4,2.8,1.2,3.3C40.4,83.8,41.2,79.8,39.4,78.2"/>
	</g>
	<g>
		<path class="st17" d="M44.8,73.7c-0.9-0.4-1.6-0.2-2.1,0.6C42.2,75,42.1,76,43,76.4C44.7,77.2,45.8,74.9,44.8,73.7"/>
	</g>
	<g>
		<path class="st17" d="M43.5,71.3c-0.5-0.1-0.8,0-1,0.5c-0.2,0.4-0.1,1,0.4,1.1C43.8,73.3,44.1,71.9,43.5,71.3"/>
	</g>
	<g>
		<path class="st17" d="M34.8,73.1c-0.5-0.1-0.8,0-1,0.5c-0.2,0.4-0.1,1,0.4,1.1C35.1,75.1,35.4,73.7,34.8,73.1"/>
	</g>
	<g>
		<path class="st17" d="M34.5,85.1c-0.5-0.1-0.8,0-1,0.5c-0.2,0.4-0.1,1,0.4,1.1C34.8,87,35.1,85.7,34.5,85.1"/>
	</g>
	<g>
		<path class="st17" d="M44.5,83.7c-0.5-0.2-0.8,0.1-1,0.9c-0.2,0.7-0.1,1.5,0.4,1.8C44.9,86.7,45.1,84.5,44.5,83.7"/>
	</g>
	<g>
		<path class="st17" d="M35.4,78.8c-0.5-0.1-0.8,0-1,0.5c-0.2,0.4-0.1,1,0.4,1.1C35.7,80.7,36,79.3,35.4,78.8"/>
	</g>
	<g>
		<path class="st17" d="M29.2,82.2c-0.5-0.1-0.8,0-1,0.5c-0.2,0.4-0.1,1,0.4,1.1C29.5,84.1,29.8,82.7,29.2,82.2"/>
	</g>
	<g>
		<path class="st17" d="M28.6,85.8c-0.5-0.1-0.8,0-1,0.5c-0.2,0.4-0.1,1,0.4,1.1C28.9,87.7,29.2,86.3,28.6,85.8"/>
	</g>
	<g>
		<path class="st17" d="M57.4,72.9c-0.5-0.1-0.8,0-1,0.5c-0.2,0.4-0.1,1,0.4,1.1C57.7,74.9,58,73.5,57.4,72.9"/>
	</g>
	<g>
		<path class="st17" d="M58.2,69.9c-0.4-0.1-0.6,0-0.7,0.4c-0.1,0.3-0.1,0.7,0.3,0.8C58.4,71.4,58.6,70.3,58.2,69.9"/>
	</g>
	<g>
		<path class="st17" d="M54.1,78.4c-0.5-0.1-0.8,0-1,0.5c-0.2,0.4-0.1,1,0.4,1.1C54.5,80.3,54.7,79,54.1,78.4"/>
	</g>
	<g>
		<path class="st17" d="M58.3,67.7c-0.8-0.1-1.3,0-1.7,0.5c-0.3,0.4-0.2,1,0.6,1.1C58.8,69.6,59.3,68.2,58.3,67.7"/>
	</g>
	<g>
		<path class="st17" d="M41.7,69.6c-0.5-0.1-0.8,0-1,0.5c-0.2,0.4-0.1,1,0.4,1.1C42.1,71.5,42.3,70.2,41.7,69.6"/>
	</g>
	<g>
		<path class="st17" d="M32.3,72.5c-1.2-0.1-2,0.1-2.5,0.8c-0.4,0.7-0.3,1.4,1,1.7C33.2,75.4,33.8,73.3,32.3,72.5"/>
	</g>
	<g>
		<path class="st17" d="M55.1,67.7c-0.5-0.1-0.8,0-1,0.5c-0.2,0.4-0.1,1,0.4,1.1C55.5,69.6,55.7,68.2,55.1,67.7"/>
	</g>
	<g>
		<path class="st17" d="M42.8,83.3c-0.5-0.1-0.8,0-1,0.5c-0.2,0.4-0.1,1,0.4,1.1C43.2,85.2,43.5,83.8,42.8,83.3"/>
	</g>
	<g>
		<path class="st17" d="M42.4,80.7c-0.7-0.1-1.1,0.1-1.4,0.7c-0.2,0.6-0.2,1.3,0.5,1.5C42.9,83.2,43.2,81.4,42.4,80.7"/>
	</g>
</g>
<path class="st7" d="M47.8,33.8l0.5,1.3C48.3,35.1,48.5,34.4,47.8,33.8z"/>
<path class="st7" d="M48.2,32.7l0.5,1.3C48.7,34,48.9,33.3,48.2,32.7z"/>
<path class="st7" d="M48.9,34.5l0.5,1.3C49.4,35.8,49.6,35.1,48.9,34.5z"/>
<path class="st7" d="M49.2,33.3l0.5,1.3C49.7,34.5,49.9,33.9,49.2,33.3z"/>
<path class="st7" d="M49.6,32.2l0.5,1.3C50,33.4,50.3,32.8,49.6,32.2z"/>
<path class="st7" d="M50.3,34l0.5,1.3C50.8,35.3,51,34.6,50.3,34z"/>
<path class="st7" d="M50.6,32.9l0.5,1.3C51.1,34.2,51.3,33.5,50.6,32.9z"/>
<path class="st7" d="M51,31.8l0.5,1.3C51.5,33.1,51.7,32.4,51,31.8z"/>
<path class="st7" d="M51.7,33.6l0.5,1.3C52.2,34.9,52.4,34.2,51.7,33.6z"/>
<path class="st7" d="M47.2,34.6l0.5,1.3C47.6,35.8,47.9,35.2,47.2,34.6z"/>
<path class="st7" d="M45.7,34.2l0.5,1.3C46.2,35.5,46.5,34.8,45.7,34.2z"/>
<path class="st7" d="M46.6,32.7l0.5,1.3C47,33.9,47.3,33.2,46.6,32.7z"/>
<path class="st7" d="M47.9,36.7l0.5,1.3C48.4,37.9,48.7,37.2,47.9,36.7z"/>
<path class="st7" d="M48.3,35.6l0.5,1.3C48.8,36.8,49.1,36.2,48.3,35.6z"/>
<path class="st7" d="M49,37.4l0.5,1.3C49.5,38.7,49.8,38,49,37.4z"/>
<path class="st7" d="M49.5,36.4l0.5,1.3C50,37.7,50.3,37,49.5,36.4z"/>
<path class="st7" d="M49.9,35.3l0.5,1.3C50.4,36.6,50.6,35.9,49.9,35.3z"/>
<path class="st7" d="M50.6,37.1l0.5,1.3C51.1,38.4,51.3,37.7,50.6,37.1z"/>
<path class="st7" d="M50.1,38.2l0.5,1.3C50.5,39.4,50.8,38.7,50.1,38.2z"/>
<path class="st7" d="M46,41.7l0.5,1.3C46.4,43,46.7,42.3,46,41.7z"/>
<path class="st7" d="M45.7,43.4l0.5,1.3C46.2,44.7,46.4,44,45.7,43.4z"/>
<path class="st7" d="M46.8,43.9l0.5,1.3C47.2,45.2,47.5,44.5,46.8,43.9z"/>
<path class="st7" d="M44.2,45.2l0.5,1.3C44.7,46.4,44.9,45.8,44.2,45.2z"/>
<path class="st7" d="M44.7,41.5l0.5,1.3C45.1,42.7,45.4,42,44.7,41.5z"/>
<path class="st7" d="M44.4,43.1l0.5,1.3C44.9,44.4,45.1,43.7,44.4,43.1z"/>
<path class="st7" d="M45.5,44.9l0.5,1.3C46,46.2,46.2,45.5,45.5,44.9z"/>
<path class="st7" d="M43.6,41.4l0.5,1.3C44,42.6,44.3,42,43.6,41.4z"/>
<path class="st7" d="M44.8,39.6l0.5,1.3C45.3,40.9,45.6,40.2,44.8,39.6z"/>
<path class="st7" d="M43.5,39.5l0.5,1.3C44,40.8,44.2,40.1,43.5,39.5z"/>
<path class="st7" d="M42.3,39.2l0.5,1.3C42.8,40.5,43,39.8,42.3,39.2z"/>
<path class="st7" d="M43.3,37.5l0.5,1.3C43.8,38.7,44.1,38.1,43.3,37.5z"/>
<path class="st7" d="M41.7,36.6l0.5,1.3C42.2,37.9,42.4,37.2,41.7,36.6z"/>
<path class="st7" d="M40.6,37.5l0.5,1.3C41.1,38.8,41.3,38.1,40.6,37.5z"/>
<path class="st7" d="M40.4,41.7l0.5,1.3C40.9,43,41.1,42.3,40.4,41.7z"/>
<path class="st7" d="M39.5,38.8l0.5,1.3C40,40.1,40.3,39.4,39.5,38.8z"/>
<path class="st7" d="M39.9,43.5l0.5,1.3C40.3,44.8,40.6,44.1,39.9,43.5z"/>
<path class="st7" d="M41,40.5l0.5,1.3C41.5,41.8,41.8,41.1,41,40.5z"/>
<path class="st7" d="M40.4,45.7l0.5,1.3C40.9,47,41.1,46.3,40.4,45.7z"/>
<path class="st7" d="M41.1,48.4l0.5,1.3C41.5,49.6,41.8,49,41.1,48.4z"/>
<path class="st7" d="M43.3,43.1l0.5,1.3C43.8,44.3,44.1,43.7,43.3,43.1z"/>
<path class="st7" d="M42.3,41.1l0.5,1.3C42.7,42.4,43,41.7,42.3,41.1z"/>
<path class="st7" d="M42,42.7l0.5,1.3C42.5,44,42.7,43.3,42,42.7z"/>
<path class="st7" d="M42.8,44.5l0.5,1.3C43.3,45.8,43.5,45.1,42.8,44.5z"/>
<path class="st7" d="M47.4,47.5l0.5,1.3C47.9,48.7,48.2,48.1,47.4,47.5z"/>
<path class="st7" d="M47.2,49.2l0.5,1.3C47.7,50.4,47.9,49.8,47.2,49.2z"/>
<path class="st7" d="M45.7,50.9l0.5,1.3C46.1,52.2,46.4,51.5,45.7,50.9z"/>
<path class="st7" d="M46.1,47.2l0.5,1.3C46.6,48.4,46.9,47.8,46.1,47.2z"/>
<path class="st7" d="M45.9,48.8l0.5,1.3C46.3,50.1,46.6,49.4,45.9,48.8z"/>
<path class="st7" d="M47,50.7l0.5,1.3C47.5,51.9,47.7,51.2,47,50.7z"/>
<path class="st7" d="M45.1,47.1l0.5,1.3C45.5,48.4,45.8,47.7,45.1,47.1z"/>
<path class="st7" d="M44.8,48.8l0.5,1.3C45.3,50.1,45.5,49.4,44.8,48.8z"/>
<path class="st7" d="M43.8,46.8l0.5,1.3C44.2,48.1,44.5,47.4,43.8,46.8z"/>
<path class="st7" d="M42.8,48.5l0.5,1.3C43.3,49.8,43.5,49.1,42.8,48.5z"/>
<path class="st7" d="M42.3,46.4l0.5,1.3C42.7,47.6,43,47,42.3,46.4z"/>
<path class="st7" d="M41.3,44.1l0.5,1.3C41.7,45.4,42,44.7,41.3,44.1z"/>
<path class="st7" d="M46.8,45.7l0.5,1.3C47.2,46.9,47.5,46.3,46.8,45.7z"/>
<path class="st7" d="M46.6,52.9l0.5,1.3C47.1,54.2,47.3,53.5,46.6,52.9z"/>
<path class="st7" d="M47.8,53.4l0.5,1.3C48.2,54.6,48.5,53.9,47.8,53.4z"/>
<path class="st7" d="M47.5,55.3l0.5,1.3C47.9,56.5,48.2,55.8,47.5,55.3z"/>
<path class="st7" d="M46.1,54.3l0.5,1.3C46.6,55.6,46.8,54.9,46.1,54.3z"/>
<path class="st7" d="M46,56.2l0.5,1.3C46.4,57.5,46.7,56.8,46,56.2z"/>
<path class="st7" d="M44.6,54.6l0.5,1.3C45.1,55.8,45.3,55.1,44.6,54.6z"/>
<path class="st7" d="M47.7,45.6l0.5,1.3C48.1,46.8,48.4,46.2,47.7,45.6z"/>
<path class="st7" d="M48.4,49.5l0.5,1.3C48.9,50.8,49.2,50.1,48.4,49.5z"/>
<path class="st7" d="M48.3,51.4l0.5,1.3C48.7,52.6,49,51.9,48.3,51.4z"/>
<path class="st7" d="M52.5,35.3l0.5,1.3C53,36.5,53.2,35.9,52.5,35.3z"/>
<path class="st7" d="M52.9,34.3l0.5,1.3C53.4,35.5,53.6,34.9,52.9,34.3z"/>
<path class="st7" d="M53.2,36.6l0.5,1.3C53.7,37.9,54,37.2,53.2,36.6z"/>
<path class="st7" d="M51,35.8l0.5,1.3C51.4,37,51.7,36.3,51,35.8z"/>
<path class="st7" d="M51.4,34.7l0.5,1.3C51.8,35.9,52.1,35.3,51.4,34.7z"/>
<path class="st7" d="M52.1,36.5l0.5,1.3C52.5,37.8,52.8,37.1,52.1,36.5z"/>
<path class="st7" d="M51.1,39.1l0.5,1.3C51.6,40.4,51.8,39.7,51.1,39.1z"/>
<path class="st7" d="M51.5,38l0.5,1.3C51.9,39.3,52.2,38.6,51.5,38z"/>
<path class="st7" d="M52.2,39.9l0.5,1.3C52.7,41.1,52.9,40.5,52.2,39.9z"/>
<path class="st7" d="M52.5,38.6l0.5,1.3C52.9,39.9,53.2,39.2,52.5,38.6z"/>
<path class="st7" d="M52.9,37.5l0.5,1.3C53.3,38.8,53.6,38.1,52.9,37.5z"/>
<path class="st7" d="M53.6,39.3l0.5,1.3C54,40.6,54.3,39.9,53.6,39.3z"/>
<path class="st7" d="M53.9,38.2l0.5,1.3C54.4,39.5,54.6,38.8,53.9,38.2z"/>
<path class="st7" d="M54.2,36.8l0.5,1.3C54.7,38,54.9,37.4,54.2,36.8z"/>
<path class="st7" d="M50.4,39.9l0.5,1.3C50.9,41.2,51.2,40.5,50.4,39.9z"/>
<path class="st7" d="M49.2,39.3l0.5,1.3C49.7,40.6,49.9,39.9,49.2,39.3z"/>
<path class="st7" d="M50.1,41.7l0.5,1.3C50.5,42.9,50.8,42.3,50.1,41.7z"/>
<path class="st7" d="M51.2,42l0.5,1.3C51.7,43.3,52,42.6,51.2,42z"/>
<path class="st7" d="M51.6,40.9l0.5,1.3C52.1,42.2,52.3,41.5,51.6,40.9z"/>
<path class="st7" d="M52.3,42.7l0.5,1.3C52.8,44,53.1,43.3,52.3,42.7z"/>
<path class="st7" d="M52.8,41.7l0.5,1.3C53.3,43,53.6,42.3,52.8,41.7z"/>
<path class="st7" d="M53.2,40.6l0.5,1.3C53.7,41.9,53.9,41.2,53.2,40.6z"/>
<path class="st7" d="M53.9,42.5l0.5,1.3C54.4,43.7,54.7,43.1,53.9,42.5z"/>
<path class="st7" d="M54.3,41.1l0.5,1.3C54.7,42.4,55,41.7,54.3,41.1z"/>
<path class="st7" d="M55.4,41.8l0.5,1.3C55.8,43.1,56.1,42.4,55.4,41.8z"/>
<path class="st7" d="M53.2,45.4l0.5,1.3C53.7,46.6,54,45.9,53.2,45.4z"/>
<path class="st7" d="M55.1,43.5l0.5,1.3C55.6,44.8,55.9,44.1,55.1,43.5z"/>
<path class="st7" d="M55.9,44.8l0.5,1.3C56.4,46.1,56.6,45.4,55.9,44.8z"/>
<path class="st7" d="M53.6,44l0.5,1.3C54.1,45.2,54.3,44.6,53.6,44z"/>
<path class="st7" d="M54.7,44.7l0.5,1.3C55.2,46,55.4,45.3,54.7,44.7z"/>
<path class="st7" d="M53.7,47.4l0.5,1.3C54.2,48.6,54.4,47.9,53.7,47.4z"/>
<path class="st7" d="M54.1,46.3l0.5,1.3C54.6,47.5,54.8,46.8,54.1,46.3z"/>
<path class="st7" d="M54.8,48.1l0.5,1.3C55.3,49.4,55.5,48.7,54.8,48.1z"/>
<path class="st7" d="M55.1,46.8l0.5,1.3C55.6,48.1,55.8,47.4,55.1,46.8z"/>
<path class="st7" d="M55.5,45.7L56,47C56,47,56.2,46.3,55.5,45.7z"/>
<path class="st7" d="M56.2,47.6l0.5,1.3C56.7,48.8,56.9,48.2,56.2,47.6z"/>
<path class="st7" d="M56.5,46.5l0.5,1.2C57,47.7,57.3,47,56.5,46.5z"/>
<path class="st7" d="M52.4,46.2l0.5,1.3C52.9,47.5,53.2,46.8,52.4,46.2z"/>
<path class="st7" d="M52,44.1l0.5,1.3C52.5,45.4,52.7,44.7,52,44.1z"/>
<path class="st7" d="M53.1,48.1l0.5,1.3C53.6,49.4,53.8,48.7,53.1,48.1z"/>
<path class="st7" d="M53.9,50.2l0.5,1.3C54.4,51.5,54.6,50.8,53.9,50.2z"/>
<path class="st7" d="M54.3,49.1l0.5,1.3C54.7,50.4,55,49.7,54.3,49.1z"/>
<path class="st7" d="M55,51l0.5,1.3C55.5,52.2,55.7,51.5,55,51z"/>
<path class="st7" d="M54.6,53l0.5,1.3C55.1,54.2,55.4,53.5,54.6,53z"/>
<path class="st7" d="M56.1,52.1l0.5,1.3C56.6,53.4,56.8,52.7,56.1,52.1z"/>
<path class="st7" d="M55.9,53.4l0.5,1.3C56.4,54.6,56.6,53.9,55.9,53.4z"/>
<path class="st7" d="M57.1,52.6l0.5,1.3C57.6,53.9,57.9,53.2,57.1,52.6z"/>
<path class="st7" d="M57.8,51.5l0.5,1.3C58.2,52.7,58.5,52.1,57.8,51.5z"/>
<path class="st7" d="M57.2,54.5l0.5,1.3C57.6,55.7,57.9,55,57.2,54.5z"/>
<path class="st7" d="M55.5,54.7L56,56C55.9,56,56.2,55.3,55.5,54.7z"/>
<path class="st7" d="M56.5,55.3l0.5,1.3C57,56.5,57.2,55.8,56.5,55.3z"/>
<path class="st7" d="M58,54.2l0.5,1.3C58.5,55.5,58.8,54.8,58,54.2z"/>
<path class="st7" d="M54.5,54.7L55,56C55,56,55.2,55.3,54.5,54.7z"/>
<path class="st7" d="M54.4,56.8l0.5,1.3C54.9,58,55.1,57.3,54.4,56.8z"/>
<path class="st7" d="M55.4,56.5l0.5,1.3C55.9,57.8,56.1,57.1,55.4,56.5z"/>
<path class="st7" d="M56.7,56.8l0.5,1.3C57.1,58,57.4,57.3,56.7,56.8z"/>
<path class="st7" d="M57.5,56.2l0.5,1.3C58,57.5,58.2,56.8,57.5,56.2z"/>
<path class="st7" d="M58.3,56l0.5,1.3C58.8,57.3,59,56.6,58.3,56z"/>
<path class="st7" d="M55.4,58.1l0.5,1.3C55.8,59.3,56.1,58.7,55.4,58.1z"/>
<path class="st7" d="M56.3,58l0.5,1.3C56.8,59.3,57,58.6,56.3,58z"/>
<path class="st7" d="M57.5,57.9l0.5,1.3C58,59.1,58.2,58.4,57.5,57.9z"/>
<path class="st7" d="M54.2,59.3l0.5,1.3C54.7,60.5,54.9,59.9,54.2,59.3z"/>
<path class="st7" d="M55.5,60l0.5,1.3C55.9,61.2,56.2,60.6,55.5,60z"/>
<path class="st7" d="M56.3,59.7l0.5,1.3C56.8,61,57,60.3,56.3,59.7z"/>
<path class="st7" d="M57.5,59.7L58,61C58,61,58.3,60.3,57.5,59.7z"/>
<path class="st7" d="M57.4,61.4l0.5,1.3C57.9,62.6,58.1,62,57.4,61.4z"/>
<path class="st7" d="M56.2,61.7l0.5,1.3C56.7,62.9,57,62.3,56.2,61.7z"/>
<path class="st7" d="M53.8,62.3l0.5,1.3C54.2,63.5,54.5,62.9,53.8,62.3z"/>
<path class="st7" d="M55.5,62.8l0.5,1.3C55.9,64.1,56.2,63.4,55.5,62.8z"/>
<path class="st7" d="M57.4,63.1l0.5,1.3C57.9,64.3,58.1,63.7,57.4,63.1z"/>
<path class="st7" d="M56.8,63.9l0.5,1.3C57.3,65.2,57.6,64.5,56.8,63.9z"/>
<path class="st7" d="M54.6,63.9l0.5,1.3C55,65.2,55.3,64.5,54.6,63.9z"/>
<path class="st7" d="M53.6,64.6l0.5,1.3C54.1,65.9,54.3,65.2,53.6,64.6z"/>
<path class="st7" d="M55.6,64.6l0.5,1.3C56.1,65.9,56.3,65.2,55.6,64.6z"/>
<path class="st7" d="M61.4,76.7l1.3-0.5C62.6,76.2,61.9,76,61.4,76.7z"/>
<path class="st7" d="M62.4,77l1.3-0.5C63.6,76.5,63,76.3,62.4,77z"/>
<path class="st7" d="M62.1,75.8l1.3-0.5C63.3,75.3,62.6,75.1,62.1,75.8z"/>
<path class="st7" d="M63.1,75.9l1.3-0.5C64.4,75.5,63.7,75.2,63.1,75.9z"/>
<path class="st7" d="M64.2,76.2l1.3-0.5C65.4,75.8,64.7,75.5,64.2,76.2z"/>
<path class="st7" d="M63.8,75l1.3-0.5C65.1,74.5,64.4,74.3,63.8,75z"/>
<path class="st7" d="M65.1,75.1l1.3-0.5C66.4,74.6,65.7,74.4,65.1,75.1z"/>
<path class="st7" d="M66.1,75.4l1.3-0.5C67.4,75,66.7,74.7,66.1,75.4z"/>
<path class="st7" d="M65.8,74.2l1.3-0.5C67.1,73.7,66.4,73.5,65.8,74.2z"/>
<path class="st7" d="M67.2,74.3l1.3-0.5C68.5,73.8,67.8,73.6,67.2,74.3z"/>
<path class="st7" d="M68.2,74.6l1.3-0.5C69.5,74.2,68.8,73.9,68.2,74.6z"/>
<path class="st7" d="M67.9,73.4l1.3-0.5C69.1,72.9,68.5,72.7,67.9,73.4z"/>
<path class="st7" d="M69.2,73.7l1.3-0.5C70.4,73.2,69.8,73,69.2,73.7z"/>
<path class="st7" d="M70.2,74l1.3-0.5C71.5,73.5,70.8,73.3,70.2,74z"/>
<path class="st7" d="M69.9,72.7l1.3-0.5C71.1,72.3,70.5,72,69.9,72.7z"/>
<path class="st7" d="M71.1,73l1.3-0.5C72.4,72.5,71.7,72.3,71.1,73z"/>
<path class="st7" d="M72.2,73.4l1.2-0.7C73.4,72.8,72.7,72.6,72.2,73.4z"/>
<path class="st7" d="M71.9,72.2l1.2-0.7C73,71.5,72.3,71.4,71.9,72.2z"/>
<path class="st7" d="M73.4,72.1l1.1-0.8C74.5,71.3,73.7,71.3,73.4,72.1z"/>
<path class="st7" d="M74.6,72.2l1.1-0.8C75.6,71.4,74.9,71.4,74.6,72.2z"/>
<path class="st7" d="M73.8,71l1.1-0.8C74.9,70.2,74.1,70.2,73.8,71z"/>
<path class="st7" d="M75.1,71l1.1-0.8C76.2,70.2,75.5,70.2,75.1,71z"/>
<path class="st7" d="M76.4,71.1l1.1-0.8C77.5,70.3,76.7,70.2,76.4,71.1z"/>
<path class="st7" d="M75.5,69.9l1.1-0.8C76.6,69,75.9,69,75.5,69.9z"/>
<path class="st7" d="M76.8,69.8l1.1-0.8C77.8,69,77.1,68.9,76.8,69.8z"/>
<path class="st7" d="M77.8,69.8l1.1-0.8C78.9,69,78.2,68.9,77.8,69.8z"/>
<path class="st7" d="M77.2,68.7l1.1-0.8C78.2,67.9,77.5,67.8,77.2,68.7z"/>
<path class="st7" d="M78.5,68.4l1.1-0.8C79.6,67.6,78.9,67.6,78.5,68.4z"/>
<path class="st7" d="M79.6,68.4l1.1-0.8C80.7,67.6,79.9,67.6,79.6,68.4z"/>
<path class="st7" d="M78.9,67.3l1.1-0.8C80,66.5,79.3,66.5,78.9,67.3z"/>
<path class="st7" d="M59.1,77.6l1.2-0.5C60.3,77.1,59.6,76.9,59.1,77.6z"/>
<path class="st7" d="M20,85.7l1.2-0.5C21.2,85.2,20.6,85,20,85.7z"/>
<path class="st7" d="M20.4,86.3l1.2-0.5C21.6,85.8,21,85.6,20.4,86.3z"/>
<path class="st7" d="M21.4,85.4l1.2-0.5C22.6,84.9,21.9,84.7,21.4,85.4z"/>
<path class="st7" d="M19,86.6l1.2-0.5C20.2,86.1,19.5,85.9,19,86.6z"/>
<path class="st7" d="M21,81.7l1.2-0.5C22.2,81.1,21.6,80.9,21,81.7z"/>
<path class="st7" d="M21.4,82.3l1.2-0.5C22.6,81.7,22,81.5,21.4,82.3z"/>
<path class="st7" d="M22.4,81.4l1.2-0.5C23.6,80.8,22.9,80.6,22.4,81.4z"/>
<path class="st7" d="M20,82.6l1.2-0.5C21.2,82,20.5,81.8,20,82.6z"/>
<path class="st7" d="M22.1,85.7l1.2-0.5C23.4,85.2,22.7,85,22.1,85.7z"/>
<path class="st7" d="M60.1,77.9l1.2-0.5C61.3,77.4,60.6,77.2,60.1,77.9z"/>
<path class="st7" d="M59.7,76.7l1.2-0.5C60.9,76.1,60.3,75.9,59.7,76.7z"/>
<path class="st7" d="M55.5,50l0.5,1.3C55.9,51.2,56.2,50.5,55.5,50z"/>
<path class="st7" d="M55.9,48.9l0.5,1.3C56.3,50.1,56.6,49.4,55.9,48.9z"/>
<path class="st7" d="M56.6,50.7l0.5,1.3C57,52,57.3,51.3,56.6,50.7z"/>
<path class="st7" d="M56.9,49.3l0.5,1.3C57.4,50.6,57.6,49.9,56.9,49.3z"/>
<g>
	<g>
		<path class="st15" d="M54.5,35C54.5,35,54.4,35,54.5,35c0.1,1.2,0.3,2.3,0.3,3.4c-0.1,4.6-1,9.2-3.2,13.1c-1.7,3-2.3,4.3-4.3,7
			c-0.9,1.3-3.7,3.8-4.8,4.9c-1.5,1.4-3.6,0.5-5.1,2.1c-1.4,1.6-0.5,3,1.3,3.8c1.8,0.7,3.7-0.7,3.8-2.8c3-2.6,6.3-4.9,8.5-8.3
			c1.4-2.3,2.7-4.4,3.5-6.9c0.5-2.1,1.1-4.2,1.7-6.3c0.3-1.1,0.4-2.2,0.6-3.4C56.1,39.4,55.8,37.3,54.5,35z"/>
	</g>
	<g>
		<path class="st4" d="M41.3,66c-0.6-0.7-1.2-0.9-2.1-0.4c-0.8,0.4-1.3,1.2-0.7,2C39.6,69.1,41.5,67.5,41.3,66"/>
	</g>
</g>
<ellipse class="st4" cx="50.7" cy="63.7" rx="0" ry="0.5"/>
<ellipse class="st4" cx="50.6" cy="65.1" rx="0" ry="0.5"/>
<ellipse class="st4" cx="52.2" cy="66" rx="0" ry="0.5"/>
<ellipse class="st4" cx="52.6" cy="64.6" rx="0" ry="0.5"/>
<ellipse class="st4" cx="52.8" cy="63.2" rx="0" ry="0.5"/>
<ellipse class="st4" cx="53.1" cy="61.8" rx="0" ry="0.5"/>
<ellipse class="st4" cx="53.2" cy="60.6" rx="0" ry="0.5"/>
<ellipse class="st4" cx="53.5" cy="59.2" rx="0" ry="0.5"/>
<ellipse class="st4" cx="53.6" cy="57.7" rx="0" ry="0.5"/>
<ellipse class="st4" cx="53.6" cy="56.4" rx="0" ry="0.5"/>
<ellipse transform="matrix(0.9995 -3.255713e-02 3.255713e-02 0.9995 -1.7679 1.7678)" class="st4" cx="53.4" cy="55.2" rx="0" ry="0.5"/>
<ellipse transform="matrix(0.9973 -7.401284e-02 7.401284e-02 0.9973 -3.8411 4.0929)" class="st4" cx="53.3" cy="53.9" rx="0" ry="0.5"/>
<ellipse transform="matrix(0.9928 -0.1196 0.1196 0.9928 -5.9067 6.7157)" class="st4" cx="53" cy="52.6" rx="0" ry="0.5"/>
<ellipse transform="matrix(0.987 -0.1607 0.1607 0.987 -7.5524 9.1507)" class="st4" cx="52.8" cy="51.3" rx="0" ry="0.5"/>
<ellipse transform="matrix(0.9928 -0.1196 0.1196 0.9928 -5.5634 6.6237)" class="st4" cx="52.4" cy="49.7" rx="0" ry="0.5"/>
<ellipse transform="matrix(0.9517 -0.3071 0.3071 0.9517 -12.3266 18.3681)" class="st4" cx="52.2" cy="48.4" rx="0" ry="0.5"/>
<ellipse transform="matrix(0.9517 -0.3071 0.3071 0.9517 -11.9892 18.1252)" class="st4" cx="51.6" cy="47.2" rx="0" ry="0.5"/>
<ellipse transform="matrix(0.9517 -0.3071 0.3071 0.9517 -11.6464 17.9145)" class="st4" cx="51.1" cy="46" rx="0" ry="0.5"/>
<ellipse transform="matrix(0.9517 -0.3071 0.3071 0.9517 -11.273 17.6639)" class="st4" cx="50.5" cy="44.7" rx="0" ry="0.5"/>
<ellipse transform="matrix(0.9517 -0.3071 0.3071 0.9517 -10.9365 17.4248)" class="st4" cx="49.9" cy="43.5" rx="0" ry="0.5"/>
<ellipse transform="matrix(0.9517 -0.3071 0.3071 0.9517 -11.1485 17.0814)" class="st4" cx="48.7" cy="44" rx="0" ry="0.5"/>
<ellipse transform="matrix(0.9517 -0.3071 0.3071 0.9517 -10.7765 16.8332)" class="st4" cx="48.1" cy="42.7" rx="0" ry="0.5"/>
<ellipse transform="matrix(0.9517 -0.3071 0.3071 0.9517 -10.5654 17.2053)" class="st4" cx="49.4" cy="42.2" rx="0" ry="0.5"/>
<ellipse transform="matrix(0.9055 -0.4244 0.4244 0.9055 -12.7611 24.631)" class="st4" cx="48.9" cy="41" rx="0" ry="0.5"/>
<ellipse transform="matrix(0.9055 -0.4244 0.4244 0.9055 -12.3922 24.2827)" class="st4" cx="48.3" cy="40" rx="0" ry="0.5"/>
<ellipse transform="matrix(0.9055 -0.4244 0.4244 0.9055 -11.9561 23.8581)" class="st4" cx="47.6" cy="38.8" rx="0" ry="0.5"/>
<ellipse transform="matrix(0.9055 -0.4244 0.4244 0.9055 -11.4862 23.3621)" class="st4" cx="46.7" cy="37.5" rx="0" ry="0.5"/>
<ellipse transform="matrix(0.9055 -0.4244 0.4244 0.9055 -11.092 22.9669)" class="st4" cx="46" cy="36.4" rx="0" ry="0.5"/>
<ellipse transform="matrix(0.9055 -0.4244 0.4244 0.9055 -10.6558 22.6473)" class="st4" cx="45.5" cy="35.2" rx="0" ry="0.5"/>
<ellipse transform="matrix(0.9055 -0.4244 0.4244 0.9055 -10.1354 22.2494)" class="st4" cx="44.9" cy="33.9" rx="0" ry="0.5"/>
<ellipse transform="matrix(0.9055 -0.4244 0.4244 0.9055 -12.2835 23.2248)" class="st4" cx="46" cy="39.2" rx="0" ry="0.5"/>
<ellipse transform="matrix(0.7984 -0.6022 0.6022 0.7984 -13.7469 34.8959)" class="st4" cx="45.2" cy="38" rx="0" ry="0.7"/>
<ellipse transform="matrix(0.7478 -0.664 0.664 0.7478 -13.2247 38.7)" class="st4" cx="44.3" cy="36.8" rx="0" ry="0.5"/>
<ellipse transform="matrix(0.7478 -0.664 0.664 0.7478 -12.7222 37.8157)" class="st4" cx="43.4" cy="35.7" rx="0" ry="0.5"/>
<ellipse transform="matrix(0.7478 -0.664 0.664 0.7478 -12.2126 37.0069)" class="st4" cx="42.6" cy="34.6" rx="0" ry="0.5"/>
<ellipse transform="matrix(0.8263 -0.5632 0.5632 0.8263 -15.1097 33.9763)" class="st4" cx="47.5" cy="41.5" rx="0" ry="0.5"/>
<ellipse transform="matrix(0.8201 -0.5722 0.5722 0.8201 -14.6634 34.0411)" class="st4" cx="46.8" cy="40.3" rx="0" ry="0.5"/>
<ellipse class="st4" cx="49.8" cy="66.1" rx="0" ry="0.5"/>
<ellipse class="st4" cx="49" cy="67.1" rx="0" ry="0.5"/>
<ellipse transform="matrix(0.9973 -7.284596e-02 7.284596e-02 0.9973 -4.8469 4.0278)" class="st4" cx="52.8" cy="68.5" rx="0" ry="0.5"/>
<ellipse transform="matrix(0.9578 -0.2874 0.2874 0.9578 -17.0917 17.9203)" class="st4" cx="52.5" cy="67.2" rx="0" ry="0.5"/>
<ellipse class="st4" cx="48.3" cy="68.3" rx="0" ry="0.5"/>
<ellipse transform="matrix(0.9866 -0.1632 0.1632 0.9866 -10.7389 8.8026)" class="st4" cx="48.2" cy="69.8" rx="0" ry="0.5"/>
<ellipse transform="matrix(0.7456 -0.6664 0.6664 0.7456 -34.6826 50.4312)" class="st4" cx="48.7" cy="70.6" rx="0" ry="0.3"/>
<ellipse transform="matrix(0.1875 -0.9823 0.9823 0.1875 -29.5921 106.3558)" class="st4" cx="49.5" cy="71.1" rx="0" ry="0.3"/>
<ellipse class="st4" cx="50.5" cy="71.1" rx="0" ry="0.3"/>
<ellipse class="st4" cx="51.3" cy="70.9" rx="0" ry="0.3"/>
<ellipse class="st4" cx="52" cy="70.4" rx="0" ry="0.3"/>
<ellipse class="st4" cx="52.6" cy="69.6" rx="0" ry="0.5"/>
<ellipse class="st4" cx="51" cy="61" rx="0" ry="0.5"/>
<ellipse class="st4" cx="51.2" cy="59.4" rx="0" ry="0.5"/>
<ellipse transform="matrix(1 -8.547223e-03 8.547223e-03 1 -0.4919 0.4406)" class="st4" cx="51.3" cy="57.8" rx="0" ry="0.5"/>
<ellipse class="st4" cx="50.2" cy="54.4" rx="0" ry="0.5"/>
<ellipse class="st4" cx="49.6" cy="55.5" rx="0" ry="0.5"/>
<ellipse class="st4" cx="48.9" cy="56.7" rx="0" ry="0.5"/>
<ellipse class="st4" cx="48.2" cy="57.8" rx="0" ry="0.5"/>
<ellipse class="st4" cx="47.3" cy="58.8" rx="0" ry="0.5"/>
<ellipse class="st4" cx="46.4" cy="59.8" rx="0" ry="0.5"/>
<ellipse class="st4" cx="50.6" cy="58.4" rx="0" ry="0.5"/>
<ellipse class="st4" cx="49.8" cy="59.4" rx="0" ry="0.5"/>
<ellipse class="st4" cx="48.9" cy="60.4" rx="0" ry="0.5"/>
<ellipse class="st4" cx="48.1" cy="61.3" rx="0" ry="0.5"/>
<ellipse class="st4" cx="47.3" cy="62" rx="0" ry="0.5"/>
<ellipse class="st4" cx="45.6" cy="60.6" rx="0" ry="0.5"/>
<ellipse class="st4" cx="44.7" cy="61.5" rx="0" ry="0.5"/>
<ellipse class="st4" cx="46.2" cy="63" rx="0" ry="0.5"/>
<ellipse class="st4" cx="45.3" cy="63.8" rx="0" ry="0.5"/>
<ellipse class="st4" cx="43.8" cy="62.4" rx="0" ry="0.5"/>
<ellipse class="st4" cx="44.4" cy="64.6" rx="0" ry="0.5"/>
<ellipse class="st4" cx="43.4" cy="65.3" rx="0" ry="0.5"/>
<ellipse class="st4" cx="42" cy="64.1" rx="0" ry="0.5"/>
<ellipse class="st4" cx="40.9" cy="64.5" rx="0" ry="0.5"/>
<ellipse class="st4" cx="39.8" cy="64.6" rx="0" ry="0.4"/>
<ellipse class="st4" cx="38.9" cy="64.8" rx="0" ry="0.4"/>
<ellipse class="st4" cx="38.1" cy="65.1" rx="0" ry="0.4"/>
<ellipse class="st4" cx="37.3" cy="65.9" rx="0" ry="0.4"/>
<ellipse class="st4" cx="37" cy="66.9" rx="0" ry="0.4"/>
<ellipse transform="matrix(0.8268 -0.5625 0.5625 0.8268 -31.7722 32.7604)" class="st4" cx="37.3" cy="68" rx="0" ry="0.4"/>
<ellipse transform="matrix(0.5025 -0.8646 0.8646 0.5025 -40.4907 67.013)" class="st4" cx="38" cy="68.7" rx="0" ry="0.4"/>
<ellipse transform="matrix(0.1788 -0.9839 0.9839 0.1788 -36.042 95.1578)" class="st4" cx="39" cy="69.2" rx="0" ry="0.3"/>
<ellipse class="st4" cx="40" cy="69.2" rx="0" ry="0.3"/>
<ellipse class="st4" cx="40.8" cy="68.9" rx="0" ry="0.3"/>
<ellipse class="st4" cx="41.5" cy="68.4" rx="0" ry="0.3"/>
<ellipse class="st4" cx="42" cy="67.5" rx="0" ry="0.4"/>
<ellipse class="st4" cx="42.3" cy="66.3" rx="0" ry="0.4"/>
<ellipse class="st4" cx="43" cy="63.2" rx="0" ry="0.5"/>
<ellipse class="st4" cx="51.4" cy="56.4" rx="0" ry="0.5"/>
<ellipse transform="matrix(0.9983 -5.756930e-02 5.756930e-02 0.9983 -3.0733 3.0501)" class="st4" cx="51.4" cy="54.9" rx="0" ry="0.5"/>
<ellipse transform="matrix(0.9908 -0.1351 0.1351 0.9908 -6.6868 7.3887)" class="st4" cx="51.1" cy="53" rx="0" ry="0.5"/>
<ellipse transform="matrix(0.9737 -0.2278 0.2278 0.9737 -10.3881 12.9281)" class="st4" cx="50.8" cy="51.5" rx="0" ry="0.5"/>
<ellipse transform="matrix(0.9908 -0.1351 0.1351 0.9908 -6.2746 7.2658)" class="st4" cx="50.4" cy="49.9" rx="0" ry="0.5"/>
<ellipse transform="matrix(0.9737 -0.2278 0.2278 0.9737 -9.701 12.6875)" class="st4" cx="50.1" cy="48.4" rx="0" ry="0.5"/>
<ellipse transform="matrix(0.9667 -0.2559 0.2559 0.9667 -10.3581 14.3067)" class="st4" cx="49.8" cy="47" rx="0" ry="0.5"/>
<ellipse transform="matrix(0.9383 -0.3457 0.3457 0.9383 -12.6813 19.8484)" class="st4" cx="49.3" cy="45.5" rx="0" ry="0.5"/>
<ellipse class="st4" cx="50.9" cy="62.3" rx="0" ry="0.5"/>
<ellipse class="st5" cx="35.8" cy="55.8" rx="1.2" ry="0.7"/>
<path class="st18" d="M54.9,5.7c-0.7-0.5-0.8-0.4-1.3-1.1c-2.2,4.8-7.7,6.2-7.7,6.2s1.5,1.8,3.6,2.5l6.6-7.1
	C55.6,6.1,55.3,6,54.9,5.7z"/>
<ellipse class="st1" cx="37.1" cy="102" rx="4" ry="0.4"/>
<ellipse class="st1" cx="26.7" cy="101.6" rx="4" ry="0.4"/>
<ellipse transform="matrix(0.2766 -0.961 0.961 0.2766 -83.3323 89.2238)" class="st1" cx="17.6" cy="100" rx="0.4" ry="4"/>
<ellipse transform="matrix(0.9745 -0.2242 0.2242 0.9745 -15.6577 7.0227)" class="st1" cx="23.1" cy="72.5" rx="2.5" ry="0.3"/>
<ellipse transform="matrix(0.9914 -0.1311 0.1311 0.9914 -12.9111 7.2228)" class="st1" cx="48.4" cy="101.7" rx="4" ry="0.4"/>
<ellipse transform="matrix(0.9914 -0.1311 0.1311 0.9914 -12.5999 8.5446)" class="st1" cx="58.6" cy="100" rx="4" ry="0.4"/>
<ellipse transform="matrix(0.8938 -0.4485 0.4485 0.8938 -36.2432 40.7084)" class="st1" cx="67.8" cy="96.9" rx="4" ry="0.4"/>
<ellipse transform="matrix(0.4439 -0.8961 0.8961 0.4439 -40.9404 116.9692)" class="st1" cx="73.8" cy="91.5" rx="2.8" ry="0.4"/>
<ellipse transform="matrix(0.9957 -9.271512e-02 9.271512e-02 0.9957 -7.5643 7.3108)" class="st1" cx="74.9" cy="85.1" rx="0.4" ry="2.8"/>
<ellipse transform="matrix(0.8153 -0.579 0.579 0.8153 -32.6397 56.1482)" class="st1" cx="71.7" cy="79.2" rx="0.4" ry="2.8"/>
<path class="st5" d="M20.8,54.6l-0.4-0.5c0,0,2.1-0.1,2.9,0.4S20.8,54.6,20.8,54.6z"/>
<path class="st5" d="M21.3,56.8c-0.6-0.4-1.9-0.4-2.6-0.4h-0.1c0.1,0,0,0,0,0.1s0,0.1,0,0.2l0,0l0.1,0.2
	C18.7,56.9,22.1,57.2,21.3,56.8z"/>
<path class="st5" d="M20.3,58.8l-0.4,0.4c0,0,2.1,0.1,2.9-0.3C23.6,58.5,20.3,58.8,20.3,58.8z"/>
<g>
	<text transform="matrix(1 0 0 1 269.3407 -32.8672)" class="st14" style="font-family:'ArialMT'; font-size:9.7622px;">      </text>
</g>
<polygon class="st7" points="13.3,77.3 13.9,77.3 14.3,78 "/>
<polygon class="st7" points="10.5,78.2 11.2,78.3 11.5,78.9 "/>
<polygon class="st7" points="8.9,80 9.5,80 9.9,80.7 "/>
<polygon class="st7" points="13.6,81.5 14.2,81.6 14.6,82.2 "/>
<polygon class="st7" points="11,82.2 11.7,82.3 12,82.9 "/>
<polygon class="st7" points="8.8,84 9.5,84.1 9.8,84.7 "/>
</svg>
