<?xml version="1.0" encoding="iso-8859-1"?>
<!-- Generator: Adobe Illustrator 19.0.0, SVG Export Plug-In . SVG Version: 6.00 Build 0)  -->
<svg version="1.1" id="Layer_1" xmlns="http://www.w3.org/2000/svg" xmlns:xlink="http://www.w3.org/1999/xlink" x="0px" y="0px"
	 viewBox="0 0 473.931 473.931" style="enable-background:new 0 0 473.931 473.931;" xml:space="preserve">
<circle style="fill:#B1C635;" cx="236.966" cy="236.966" r="236.966"/>
<g>
	<path style="fill:#FFFFFF;" d="M160.66,286.578c0.337,0.225,0.696,0.408,1.066,0.558c2.877,1.414,5.59,0.632,7.442-1.16
		c1.923-1.497,3.087-3.918,2.29-6.986c-5.934-22.877-11.869-45.758-17.803-68.635c-0.965-3.723-4.913-5.916-8.591-4.958
		c-22.87,5.934-45.747,11.873-68.616,17.811c-5.979,1.549-6.922,9.773-1.691,12.853c7.293,4.288,14.578,8.576,21.874,12.864
		l-25.747,44.591c-2.582,4.498-2.582,12.112,0.007,16.602l24.95,43.206c0.4-2.369,1.328-4.812,2.739-7.293l41.489-71.561
		C146.931,278.503,153.794,282.544,160.66,286.578z"/>
	<path style="fill:#FFFFFF;" d="M191.949,310.854v-0.131h-64.92l-21.373,36.733c-1.721,3.023-2.574,5.871-2.627,8.438
		c-0.082,3.832,1.661,6.971,4.928,8.909c1.882,0.924,3.828,1.598,5.77,1.92c0.359,0.06,0.763,0.105,1.134,0.12l4.026,0.094h67.314
		c0.049,0,0.09,0.007,0.138,0.007c1.403,0,2.806,0,4.209,0c0.049,0,0.094-0.007,0.146-0.007h1.253v-0.067
		c14.664-0.737,26.776-12.905,26.877-27.794C218.927,324.197,206.788,311.408,191.949,310.854z"/>
	<path style="fill:#FFFFFF;" d="M327.382,108.62c-7.338,4.191-14.675,8.385-22.013,12.58l-25.908-44.504
		c-2.619-4.471-9.227-8.258-14.41-8.239l-49.893,0.191c1.852,1.523,3.514,3.54,4.969,6.002l41.489,71.557
		c-7.094,4.052-14.189,8.108-21.283,12.161c-0.019,0.011-0.034,0.026-0.052,0.037c-0.037,0.022-0.067,0.049-0.101,0.071
		c-2.881,1.736-3.648,4.516-3.064,7.076c0.269,2.481,1.781,4.782,4.917,5.639c22.802,6.215,45.605,12.434,68.403,18.649
		c3.686,1.007,7.614-1.224,8.621-4.913c6.211-22.802,12.426-45.597,18.638-68.396C339.336,110.528,332.714,105.574,327.382,108.62z"
		/>
	<path style="fill:#FFFFFF;" d="M209.359,73.6c-3.289-1.976-6.877-2.021-10.181-0.146c-1.74,1.171-3.289,2.529-4.535,4.056
		c-0.228,0.281-0.471,0.61-0.666,0.92l-2.084,3.45l-33.552,58.607c-0.004,0.007-0.007,0.011-0.011,0.019
		c-0.7,1.216-1.396,2.436-2.095,3.656c-0.011,0.019-0.015,0.034-0.026,0.049l-0.617,1.081l0.056,0.03
		c-6.709,13.107-2.032,29.732,10.859,37.178c12.89,7.439,29.859,3.188,37.739-9.351l0.127,0.075l32.258-56.347l-21.264-36.8
		C213.606,77.077,211.559,74.925,209.359,73.6z"/>
	<path style="fill:#FFFFFF;" d="M312.134,312.542c0.026-7.921,0.052-15.85,0.079-23.775c0.03-0.49,0.004-0.969-0.079-1.441
		c-0.292-2.967-2.152-4.853-4.46-5.62c-2.155-0.965-4.726-0.857-6.96,1.033c-0.172,0.127-0.337,0.254-0.494,0.4
		c-0.004,0.004-0.007,0.004-0.011,0.011c-16.767,16.655-33.534,33.313-50.3,49.971c-2.728,2.709-2.623,7.229,0.056,9.919
		c16.655,16.759,33.309,33.522,49.967,50.282c4.284,4.311,11.929,1.111,11.947-4.935c0.03-8.49,0.06-16.973,0.086-25.459
		l51.49-0.243c5.19-0.037,11.764-3.873,14.335-8.37l24.737-43.33c-2.249,0.849-4.827,1.28-7.682,1.313L312.134,312.542z"/>
	<path style="fill:#FFFFFF;" d="M405.087,288.793c-0.127-0.337-0.292-0.711-0.468-1.036l-1.949-3.525l-34.084-58.405
		c-0.019-0.03-0.03-0.064-0.049-0.09c-0.707-1.209-1.418-2.421-2.122-3.637c-0.015-0.022-0.034-0.045-0.045-0.067l-0.528-0.902
		l-0.049,0.026c-7.989-12.453-24.954-16.583-37.803-9.055c-12.838,7.528-17.41,24.235-10.578,37.294l-0.123,0.071l32.725,56.07
		l42.495-0.056c3.48-0.041,6.368-0.737,8.614-1.983c3.353-1.86,5.186-4.95,5.212-8.748
		C406.191,292.654,405.79,290.634,405.087,288.793z"/>
</g>
<g>
</g>
<g>
</g>
<g>
</g>
<g>
</g>
<g>
</g>
<g>
</g>
<g>
</g>
<g>
</g>
<g>
</g>
<g>
</g>
<g>
</g>
<g>
</g>
<g>
</g>
<g>
</g>
<g>
</g>
</svg>
